<svg width="20" height="20" viewBox="0 0 20 20" fill="none" xmlns="http://www.w3.org/2000/svg">
<g clip-path="url(#clip0_29_462)">
<path d="M7.5 12.5L12.5 7.5" stroke="white" stroke-width="1.25" stroke-linecap="round" stroke-linejoin="round"/>
<path d="M7.91667 8.33333C8.14679 8.33333 8.33333 8.14679 8.33333 7.91667C8.33333 7.68655 8.14679 7.5 7.91667 7.5C7.68655 7.5 7.5 7.68655 7.5 7.91667C7.5 8.14679 7.68655 8.33333 7.91667 8.33333Z" fill="black" stroke="white" stroke-width="1.25" stroke-linecap="round" stroke-linejoin="round"/>
<path d="M12.0834 12.5C12.3135 12.5 12.5 12.3135 12.5 12.0834C12.5 11.8532 12.3135 11.6667 12.0834 11.6667C11.8532 11.6667 11.6667 11.8532 11.6667 12.0834C11.6667 12.3135 11.8532 12.5 12.0834 12.5Z" fill="black" stroke="white" stroke-width="1.25" stroke-linecap="round" stroke-linejoin="round"/>
<path d="M4.16668 6.00002C4.16668 5.51379 4.35984 5.04747 4.70366 4.70366C5.04747 4.35984 5.51379 4.16668 6.00002 4.16668H6.83335C7.31743 4.16641 7.78176 3.97469 8.12502 3.63335L8.70835 3.05002C8.87872 2.87868 9.08128 2.74272 9.30439 2.64994C9.52749 2.55716 9.76673 2.5094 10.0084 2.5094C10.25 2.5094 10.4892 2.55716 10.7123 2.64994C10.9354 2.74272 11.138 2.87868 11.3084 3.05002L11.8917 3.63335C12.2349 3.97469 12.6993 4.16641 13.1834 4.16668H14.0167C14.5029 4.16668 14.9692 4.35984 15.313 4.70366C15.6569 5.04747 15.85 5.51379 15.85 6.00002V6.83335C15.8503 7.31743 16.042 7.78176 16.3834 8.12502L16.9667 8.70835C17.138 8.87872 17.274 9.08128 17.3668 9.30439C17.4595 9.52749 17.5073 9.76673 17.5073 10.0084C17.5073 10.25 17.4595 10.4892 17.3668 10.7123C17.274 10.9354 17.138 11.138 16.9667 11.3084L16.3834 11.8917C16.042 12.2349 15.8503 12.6993 15.85 13.1834V14.0167C15.85 14.5029 15.6569 14.9692 15.313 15.313C14.9692 15.6569 14.5029 15.85 14.0167 15.85H13.1834C12.6993 15.8503 12.2349 16.042 11.8917 16.3834L11.3084 16.9667C11.138 17.138 10.9354 17.274 10.7123 17.3668C10.4892 17.4595 10.25 17.5073 10.0084 17.5073C9.76673 17.5073 9.52749 17.4595 9.30439 17.3668C9.08128 17.274 8.87872 17.138 8.70835 16.9667L8.12502 16.3834C7.78176 16.042 7.31743 15.8503 6.83335 15.85H6.00002C5.51379 15.85 5.04747 15.6569 4.70366 15.313C4.35984 14.9692 4.16668 14.5029 4.16668 14.0167V13.1834C4.16641 12.6993 3.97469 12.2349 3.63335 11.8917L3.05002 11.3084C2.87868 11.138 2.74272 10.9354 2.64994 10.7123C2.55716 10.4892 2.5094 10.25 2.5094 10.0084C2.5094 9.76673 2.55716 9.52749 2.64994 9.30439C2.74272 9.08128 2.87868 8.87872 3.05002 8.70835L3.63335 8.12502C3.97469 7.78176 4.16641 7.31743 4.16668 6.83335V6.00002Z" stroke="white" stroke-width="1.25" stroke-linecap="round" stroke-linejoin="round"/>
</g>
<defs>
<clipPath id="clip0_29_462">
<rect width="20" height="20" fill="white"/>
</clipPath>
</defs>
</svg>
