<svg width="18" height="16" viewBox="0 0 18 16" fill="none" xmlns="http://www.w3.org/2000/svg">
<path d="M15.25 8.30994L9.00003 14.4999L2.75003 8.30994C2.33778 7.90879 2.01306 7.42662 1.79632 6.89381C1.57957 6.36099 1.4755 5.78907 1.49064 5.21405C1.50579 4.63904 1.63983 4.07339 1.88432 3.55272C2.12882 3.03206 2.47847 2.56766 2.91127 2.18876C3.34406 1.80986 3.85061 1.52468 4.39904 1.35118C4.94746 1.17767 5.52587 1.1196 6.09783 1.18061C6.6698 1.24163 7.22294 1.42041 7.72242 1.7057C8.2219 1.99099 8.6569 2.37661 9.00003 2.83828C9.34464 2.37996 9.78014 1.99771 10.2793 1.71545C10.7784 1.43318 11.3304 1.25699 11.9008 1.19788C12.4712 1.13877 13.0476 1.19803 13.594 1.37194C14.1404 1.54585 14.645 1.83067 15.0763 2.20858C15.5076 2.58649 15.8562 3.04935 16.1004 3.56819C16.3445 4.08703 16.479 4.65068 16.4953 5.22387C16.5116 5.79705 16.4094 6.36744 16.1951 6.89932C15.9809 7.4312 15.6591 7.91313 15.25 8.31494" stroke="#111827" stroke-width="1.25" stroke-linecap="round" stroke-linejoin="round"/>
</svg>
