<svg width="20" height="20" viewBox="0 0 20 20" fill="none" xmlns="http://www.w3.org/2000/svg">
<g clip-path="url(#clip0_29_394)">
<path d="M5.83335 15.8333C6.75383 15.8333 7.50002 15.0871 7.50002 14.1667C7.50002 13.2462 6.75383 12.5 5.83335 12.5C4.91288 12.5 4.16669 13.2462 4.16669 14.1667C4.16669 15.0871 4.91288 15.8333 5.83335 15.8333Z" stroke="white" stroke-width="1.25" stroke-linecap="round" stroke-linejoin="round"/>
<path d="M14.1667 15.8333C15.0871 15.8333 15.8333 15.0871 15.8333 14.1667C15.8333 13.2462 15.0871 12.5 14.1667 12.5C13.2462 12.5 12.5 13.2462 12.5 14.1667C12.5 15.0871 13.2462 15.8333 14.1667 15.8333Z" stroke="white" stroke-width="1.25" stroke-linecap="round" stroke-linejoin="round"/>
<path d="M4.16669 14.1667H2.50002V10.8334M1.66669 4.16669H10.8334V14.1667M7.50002 14.1667H12.5M15.8334 14.1667H17.5V9.16669M17.5 9.16669H10.8334M17.5 9.16669L15 5.00002H10.8334" stroke="white" stroke-width="1.25" stroke-linecap="round" stroke-linejoin="round"/>
<path d="M2.5 7.5H5.83333" stroke="white" stroke-width="1.25" stroke-linecap="round" stroke-linejoin="round"/>
</g>
<defs>
<clipPath id="clip0_29_394">
<rect width="20" height="20" fill="white"/>
</clipPath>
</defs>
</svg>
