<svg width="18" height="16" viewBox="0 0 18 16" fill="none" xmlns="http://www.w3.org/2000/svg">
<path d="M8.99935 15.4792L8.14518 14.7084C6.67296 13.3612 5.45768 12.198 4.49935 11.2188C3.54102 10.2396 2.77713 9.36462 2.20768 8.59379C1.63824 7.82296 1.23893 7.12504 1.00977 6.50004C0.780599 5.87504 0.666016 5.2431 0.666016 4.60421C0.666016 3.35421 1.08615 2.30907 1.92643 1.46879C2.76671 0.628513 3.8049 0.208374 5.04102 0.208374C5.83268 0.208374 6.56532 0.395874 7.23893 0.770874C7.91254 1.14587 8.49935 1.68754 8.99935 2.39587C9.58268 1.64587 10.2007 1.09379 10.8535 0.739624C11.5063 0.385457 12.2077 0.208374 12.9577 0.208374C14.1938 0.208374 15.232 0.628513 16.0723 1.46879C16.9125 2.30907 17.3327 3.35421 17.3327 4.60421C17.3327 5.2431 17.2181 5.87504 16.9889 6.50004C16.7598 7.12504 16.3605 7.82296 15.791 8.59379C15.2216 9.36462 14.4577 10.2396 13.4993 11.2188C12.541 12.198 11.3257 13.3612 9.85351 14.7084L8.99935 15.4792Z" fill="#DC2626"/>
</svg>
