<svg width="20" height="20" viewBox="0 0 20 20" fill="none" xmlns="http://www.w3.org/2000/svg">
<g clip-path="url(#clip0_154_5199)">
<path d="M14.8326 16.5142L13.0226 17.4625C12.9688 17.4905 12.9084 17.5029 12.848 17.4985C12.7876 17.4941 12.7296 17.473 12.6805 17.4376C12.6314 17.4022 12.5932 17.3538 12.57 17.2978C12.5468 17.2419 12.5396 17.1806 12.5492 17.1208L12.8951 15.1117L11.4309 13.6892C11.3872 13.6469 11.3562 13.5932 11.3416 13.5342C11.3269 13.4752 11.3292 13.4133 11.348 13.3555C11.3669 13.2978 11.4016 13.2464 11.4482 13.2074C11.4949 13.1684 11.5515 13.1433 11.6117 13.135L13.6351 12.8417L14.5401 11.0142C14.5671 10.9597 14.6088 10.9139 14.6605 10.8819C14.7122 10.8499 14.7718 10.8329 14.8326 10.8329C14.8933 10.8329 14.9529 10.8499 15.0046 10.8819C15.0563 10.9139 15.098 10.9597 15.1251 11.0142L16.0301 12.8417L18.0534 13.135C18.1134 13.1436 18.1698 13.1689 18.2163 13.2079C18.2627 13.247 18.2973 13.2982 18.3161 13.3559C18.3349 13.4135 18.3372 13.4753 18.3227 13.5342C18.3083 13.5931 18.2776 13.6468 18.2342 13.6892L16.7701 15.1117L17.1151 17.12C17.1254 17.1799 17.1188 17.2415 17.0959 17.2978C17.073 17.3541 17.0348 17.4028 16.9855 17.4385C16.9363 17.4742 16.8781 17.4953 16.8175 17.4996C16.7569 17.5038 16.6963 17.491 16.6426 17.4625L14.8326 16.5142Z" stroke="white" stroke-width="1.25" stroke-linecap="round" stroke-linejoin="round"/>
<path d="M5.16654 16.5142L3.35654 17.4625C3.30283 17.4905 3.2424 17.5029 3.18201 17.4985C3.12161 17.4941 3.06363 17.473 3.01453 17.4376C2.96543 17.4022 2.92715 17.3538 2.90396 17.2978C2.88077 17.2419 2.87359 17.1806 2.88321 17.1208L3.22904 15.1117L1.76487 13.6892C1.72117 13.6469 1.69023 13.5932 1.67557 13.5342C1.66092 13.4752 1.66315 13.4133 1.68201 13.3555C1.70086 13.2978 1.73559 13.2464 1.78222 13.2074C1.82884 13.1684 1.8855 13.1433 1.94571 13.135L3.96904 12.8417L4.87404 11.0142C4.9011 10.9597 4.94282 10.9139 4.9945 10.8819C5.04617 10.8499 5.10575 10.8329 5.16654 10.8329C5.22733 10.8329 5.28691 10.8499 5.33858 10.8819C5.39026 10.9139 5.43197 10.9597 5.45904 11.0142L6.36404 12.8417L8.38737 13.135C8.44741 13.1436 8.50383 13.1689 8.55025 13.2079C8.59667 13.247 8.63125 13.2982 8.65006 13.3559C8.66888 13.4135 8.67118 13.4753 8.65672 13.5342C8.64225 13.5931 8.61159 13.6468 8.56821 13.6892L7.10404 15.1117L7.44904 17.12C7.45939 17.1799 7.45275 17.2415 7.42985 17.2978C7.40696 17.3541 7.36874 17.4028 7.31953 17.4385C7.27032 17.4742 7.2121 17.4953 7.15147 17.4996C7.09084 17.5038 7.03023 17.491 6.97654 17.4625L5.16654 16.5142Z" stroke="white" stroke-width="1.25" stroke-linecap="round" stroke-linejoin="round"/>
<path d="M10.0005 8.18085L8.19052 9.12919C8.13681 9.15714 8.07638 9.16962 8.01599 9.16522C7.9556 9.16083 7.89761 9.13973 7.84852 9.10429C7.79942 9.06885 7.76114 9.02046 7.73795 8.96452C7.71476 8.90859 7.70757 8.8473 7.71719 8.78752L8.06302 6.77835L6.59886 5.35585C6.55515 5.31361 6.52421 5.25992 6.50956 5.20093C6.49491 5.14194 6.49714 5.08001 6.51599 5.02223C6.53485 4.96444 6.56957 4.91312 6.6162 4.87412C6.66283 4.83513 6.71948 4.81003 6.77969 4.80169L8.80302 4.50835L9.70802 2.68085C9.73509 2.62642 9.77681 2.58063 9.82848 2.54861C9.88015 2.5166 9.93974 2.49963 10.0005 2.49963C10.0613 2.49963 10.1209 2.5166 10.1726 2.54861C10.2242 2.58063 10.266 2.62642 10.293 2.68085L11.198 4.50835L13.2214 4.80169C13.2814 4.81032 13.3378 4.83559 13.3842 4.87462C13.4307 4.91365 13.4652 4.96489 13.484 5.02255C13.5029 5.08021 13.5052 5.14199 13.4907 5.20089C13.4762 5.25979 13.4456 5.31347 13.4022 5.35585L11.938 6.77835L12.283 8.78669C12.2934 8.84658 12.2867 8.90817 12.2638 8.96447C12.2409 9.02077 12.2027 9.06952 12.1535 9.10519C12.1043 9.14086 12.0461 9.16202 11.9855 9.16626C11.9248 9.1705 11.8642 9.15766 11.8105 9.12919L10.0005 8.18085Z" stroke="white" stroke-width="1.25" stroke-linecap="round" stroke-linejoin="round"/>
</g>
<defs>
<clipPath id="clip0_154_5199">
<rect width="20" height="20" fill="white"/>
</clipPath>
</defs>
</svg>
