<svg width="16" height="20" viewBox="0 0 16 20" fill="none" xmlns="http://www.w3.org/2000/svg">
<path d="M6.75008 14.0625C7.62285 14.0627 8.47246 13.7818 9.17312 13.2614C9.87378 12.741 10.3882 12.0088 10.6403 11.1732C10.8923 10.3376 10.8686 9.44309 10.5725 8.62206C10.2765 7.80103 9.72392 7.09717 8.99664 6.61469C8.9276 6.56882 8.84317 6.55225 8.76191 6.56863C8.68065 6.58501 8.60923 6.633 8.56336 6.70204C8.51749 6.77108 8.50092 6.85551 8.5173 6.93677C8.53368 7.01802 8.58166 7.08944 8.6507 7.13532C9.3087 7.56984 9.79753 8.21715 10.0354 8.96893C10.2733 9.72072 10.2458 10.5314 9.95753 11.2653C9.66926 11.9993 9.1377 12.612 8.45177 13.0009C7.76585 13.3899 6.96716 13.5315 6.18933 13.4021C5.4115 13.2727 4.7017 12.8801 4.17867 12.29C3.65565 11.6999 3.35112 10.9481 3.31603 10.1603C3.28095 9.37256 3.51744 8.59666 3.98593 7.9624C4.45443 7.32814 5.12652 6.874 5.88977 6.67594C5.83787 6.73703 5.81162 6.81584 5.81653 6.89585C5.82144 6.97586 5.85712 7.05086 5.9161 7.10515C5.97507 7.15944 6.05277 7.18881 6.13291 7.18709C6.21305 7.18537 6.28942 7.15271 6.34602 7.09594L6.97102 6.47094C7.0296 6.41234 7.06251 6.33287 7.06251 6.25001C7.06251 6.16714 7.0296 6.08767 6.97102 6.02907L6.34602 5.40407C6.28708 5.34714 6.20814 5.31565 6.1262 5.31636C6.04427 5.31707 5.96589 5.34993 5.90795 5.40787C5.85001 5.46581 5.81714 5.54419 5.81643 5.62613C5.81572 5.70807 5.84722 5.787 5.90414 5.84594L6.06039 6.00219C5.05983 6.17659 4.16097 6.71964 3.54112 7.5242C2.92128 8.32876 2.62547 9.33641 2.71206 10.3484C2.79864 11.3603 3.26134 12.3031 4.00886 12.9906C4.75638 13.6782 5.73444 14.0606 6.75008 14.0625Z" fill="white"/>
<path d="M4.58295 10.111C4.60545 10.1702 4.64546 10.2213 4.69764 10.2573C4.74983 10.2933 4.81173 10.3125 4.87513 10.3125H5.72482L5.19701 12.4241C5.18066 12.489 5.18556 12.5574 5.21098 12.6192C5.23641 12.6811 5.28102 12.7332 5.33826 12.7678C5.38705 12.7974 5.44308 12.8129 5.50013 12.8125C5.57671 12.8126 5.65066 12.7846 5.70795 12.7338L8.52045 10.2338C8.56789 10.1917 8.6014 10.1361 8.61653 10.0745C8.63165 10.0129 8.62767 9.9482 8.60512 9.88891C8.58256 9.82963 8.5425 9.77861 8.49026 9.74264C8.43802 9.70667 8.37606 9.68745 8.31263 9.68753H7.46295L7.99076 7.57597C8.0071 7.51114 8.00222 7.44277 7.97684 7.38092C7.95145 7.31907 7.9069 7.26699 7.84972 7.23233C7.79254 7.19767 7.72576 7.18227 7.65918 7.18838C7.5926 7.19449 7.52973 7.2218 7.47982 7.26628L4.66732 9.76628C4.61996 9.8084 4.58653 9.86392 4.57146 9.92548C4.55639 9.98705 4.5604 10.0517 4.58295 10.111ZM7.1392 8.40565L6.75951 9.92409C6.74797 9.97017 6.74708 10.0183 6.75692 10.0647C6.76675 10.1112 6.78706 10.1548 6.81628 10.1923C6.8455 10.2297 6.88288 10.26 6.92557 10.2809C6.96826 10.3017 7.01513 10.3125 7.06263 10.3125H7.49076L6.04857 11.5938L6.42826 10.0753C6.43969 10.0293 6.44049 9.98127 6.4306 9.93488C6.42071 9.88849 6.40039 9.84496 6.37118 9.80758C6.34197 9.77021 6.30464 9.73998 6.262 9.71918C6.21937 9.69838 6.17257 9.68755 6.12513 9.68753H5.69701L7.1392 8.40565Z" fill="white"/>
<path d="M15.705 2.60406L13.5175 0.701875C13.4607 0.652368 13.3879 0.625066 13.3125 0.625H2.72156C2.63954 0.625428 2.56097 0.65809 2.50281 0.715937L0.28125 2.92375C0.25176 2.95266 0.228291 2.98712 0.212199 3.02515C0.196108 3.06318 0.187713 3.10402 0.1875 3.14531V16.8819C0.18754 16.9265 0.197126 16.9705 0.215614 17.0111C0.234102 17.0517 0.261064 17.0879 0.294687 17.1172L2.79469 19.2978C2.85145 19.3477 2.92445 19.3751 3 19.375H13.3125C13.3952 19.375 13.4746 19.3422 13.5331 19.2838L15.7206 17.1031C15.7497 17.0741 15.7728 17.0396 15.7886 17.0017C15.8044 16.9637 15.8125 16.923 15.8125 16.8819V2.83969C15.8125 2.79501 15.8029 2.75086 15.7843 2.71021C15.7658 2.66957 15.7387 2.63337 15.705 2.60406ZM8.625 1.25H9.5625V2.5H8.625V1.25ZM7.0625 1.25H8V2.5H7.0625V1.25ZM5.5 1.25H6.4375V2.5H5.5V1.25ZM3.9375 1.25H4.875V2.5H3.9375V1.25ZM10.6834 18.75H3.11719L0.8125 16.7397V3.27531L2.85031 1.25H3.3125V2.8125C3.3125 2.89538 3.34542 2.97487 3.40403 3.03347C3.46263 3.09208 3.54212 3.125 3.625 3.125H9.875C9.95788 3.125 10.0374 3.09208 10.096 3.03347C10.1546 2.97487 10.1875 2.89538 10.1875 2.8125V1.25H10.6956L12.6875 2.98187V16.7522L10.6834 18.75ZM15.1875 16.7522L13.1834 18.75H11.5684L13.2206 17.1031C13.2497 17.0741 13.2728 17.0396 13.2886 17.0017C13.3044 16.9637 13.3125 16.923 13.3125 16.8819V2.83969C13.3125 2.79501 13.3029 2.75086 13.2843 2.71021C13.2658 2.66957 13.2387 2.63337 13.205 2.60406L11.6481 1.25H13.1956L15.1875 2.98187V16.7522Z" fill="white"/>
<path d="M11.75 3.75H1.75C1.66712 3.75 1.58763 3.78292 1.52903 3.84153C1.47042 3.90013 1.4375 3.97962 1.4375 4.0625V15.9375C1.4375 16.0204 1.47042 16.0999 1.52903 16.1585C1.58763 16.2171 1.66712 16.25 1.75 16.25H11.75C11.8329 16.25 11.9124 16.2171 11.971 16.1585C12.0296 16.0999 12.0625 16.0204 12.0625 15.9375V4.0625C12.0625 3.97962 12.0296 3.90013 11.971 3.84153C11.9124 3.78292 11.8329 3.75 11.75 3.75ZM11.4375 15.625H2.0625V4.375H11.4375V15.625Z" fill="white"/>
</svg>
