<svg width="20" height="20" viewBox="0 0 20 20" fill="none" xmlns="http://www.w3.org/2000/svg">
<g clip-path="url(#clip0_154_5178)">
<path d="M9.99905 2.5C11.9456 4.22215 14.4861 5.11881 17.0824 5C17.4604 6.28585 17.576 7.63456 17.4225 8.96598C17.2689 10.2974 16.8493 11.5844 16.1886 12.7504C15.5278 13.9165 14.6394 14.9378 13.5761 15.7537C12.5128 16.5696 11.2964 17.1635 9.99905 17.5C8.70172 17.1635 7.48528 16.5696 6.422 15.7537C5.35872 14.9378 4.47031 13.9165 3.80954 12.7504C3.14878 11.5844 2.72916 10.2974 2.57561 8.96598C2.42206 7.63456 2.53772 6.28585 2.91571 5C5.51199 5.11881 8.05252 4.22215 9.99905 2.5Z" stroke="white" stroke-width="1.25" stroke-linecap="round" stroke-linejoin="round"/>
<path d="M9.99935 9.99998C10.4596 9.99998 10.8327 9.62688 10.8327 9.16665C10.8327 8.70641 10.4596 8.33331 9.99935 8.33331C9.53911 8.33331 9.16602 8.70641 9.16602 9.16665C9.16602 9.62688 9.53911 9.99998 9.99935 9.99998Z" stroke="white" stroke-width="1.25" stroke-linecap="round" stroke-linejoin="round"/>
<path d="M10 10V12.0833" stroke="white" stroke-width="1.25" stroke-linecap="round" stroke-linejoin="round"/>
</g>
<defs>
<clipPath id="clip0_154_5178">
<rect width="20" height="20" fill="white"/>
</clipPath>
</defs>
</svg>
