<svg width="111" height="40" viewBox="0 0 111 40" fill="none" xmlns="http://www.w3.org/2000/svg">
<g clip-path="url(#clip0_557_6141)">
<path d="M35.6667 16.6667C36.5871 16.6667 37.3333 15.9205 37.3333 15C37.3333 14.0795 36.5871 13.3333 35.6667 13.3333C34.7462 13.3333 34 14.0795 34 15C34 15.9205 34.7462 16.6667 35.6667 16.6667Z" stroke="#1F2937" stroke-width="1.25" stroke-linecap="round" stroke-linejoin="round"/>
<path d="M27.332 15H33.9987" stroke="#1F2937" stroke-width="1.25" stroke-linecap="round" stroke-linejoin="round"/>
<path d="M37.332 15H40.6654" stroke="#1F2937" stroke-width="1.25" stroke-linecap="round" stroke-linejoin="round"/>
<path d="M30.6667 21.6667C31.5871 21.6667 32.3333 20.9205 32.3333 20C32.3333 19.0795 31.5871 18.3333 30.6667 18.3333C29.7462 18.3333 29 19.0795 29 20C29 20.9205 29.7462 21.6667 30.6667 21.6667Z" stroke="#1F2937" stroke-width="1.25" stroke-linecap="round" stroke-linejoin="round"/>
<path d="M27.332 20H28.9987" stroke="#1F2937" stroke-width="1.25" stroke-linecap="round" stroke-linejoin="round"/>
<path d="M32.332 20H40.6654" stroke="#1F2937" stroke-width="1.25" stroke-linecap="round" stroke-linejoin="round"/>
<path d="M38.1667 26.6667C39.0871 26.6667 39.8333 25.9205 39.8333 25C39.8333 24.0795 39.0871 23.3333 38.1667 23.3333C37.2462 23.3333 36.5 24.0795 36.5 25C36.5 25.9205 37.2462 26.6667 38.1667 26.6667Z" stroke="#1F2937" stroke-width="1.25" stroke-linecap="round" stroke-linejoin="round"/>
<path d="M27.332 25H36.4987" stroke="#1F2937" stroke-width="1.25" stroke-linecap="round" stroke-linejoin="round"/>
<path d="M39.832 25H40.6654" stroke="#1F2937" stroke-width="1.25" stroke-linecap="round" stroke-linejoin="round"/>
</g>
<path d="M53.3153 25V15.2H59.4613V16.404H54.7993V19.498H58.6633V20.688H54.7993V25H53.3153ZM61.8759 16.74C61.5959 16.74 61.3625 16.656 61.1759 16.488C60.9985 16.3107 60.9099 16.0913 60.9099 15.83C60.9099 15.5687 60.9985 15.354 61.1759 15.186C61.3625 15.0087 61.5959 14.92 61.8759 14.92C62.1559 14.92 62.3845 15.0087 62.5619 15.186C62.7485 15.354 62.8419 15.5687 62.8419 15.83C62.8419 16.0913 62.7485 16.3107 62.5619 16.488C62.3845 16.656 62.1559 16.74 61.8759 16.74ZM61.1339 25V18.056H62.6179V25H61.1339ZM64.7519 25V14.92H66.2359V25H64.7519ZM71.2021 25C70.5208 25 69.9795 24.8367 69.5781 24.51C69.1768 24.174 68.9761 23.5813 68.9761 22.732V19.302H67.7861V18.056H68.9761L69.1581 16.292H70.4601V18.056H72.4201V19.302H70.4601V22.732C70.4601 23.1147 70.5395 23.3807 70.6981 23.53C70.8661 23.67 71.1508 23.74 71.5521 23.74H72.3501V25H71.2021ZM77.1956 25.168C76.5142 25.168 75.9076 25.0187 75.3756 24.72C74.8529 24.412 74.4422 23.9873 74.1436 23.446C73.8449 22.9047 73.6956 22.2747 73.6956 21.556C73.6956 20.828 73.8402 20.1887 74.1296 19.638C74.4282 19.0873 74.8389 18.658 75.3616 18.35C75.8936 18.042 76.5096 17.888 77.2096 17.888C77.8909 17.888 78.4836 18.042 78.9876 18.35C79.4916 18.6487 79.8836 19.05 80.1636 19.554C80.4436 20.058 80.5836 20.6133 80.5836 21.22C80.5836 21.3133 80.5789 21.416 80.5696 21.528C80.5696 21.6307 80.5649 21.7473 80.5556 21.878H75.1516C75.1982 22.55 75.4176 23.0633 75.8096 23.418C76.2109 23.7633 76.6729 23.936 77.1956 23.936C77.6156 23.936 77.9656 23.8427 78.2456 23.656C78.5349 23.46 78.7496 23.1987 78.8896 22.872H80.3736C80.1869 23.5253 79.8136 24.0713 79.2536 24.51C78.7029 24.9487 78.0169 25.168 77.1956 25.168ZM77.1956 19.106C76.7009 19.106 76.2622 19.2553 75.8796 19.554C75.4969 19.8433 75.2636 20.282 75.1796 20.87H79.0996C79.0716 20.3287 78.8802 19.8993 78.5256 19.582C78.1709 19.2647 77.7276 19.106 77.1956 19.106ZM82.2984 25V18.056H83.6284L83.7544 19.372C83.997 18.9147 84.333 18.5553 84.7624 18.294C85.201 18.0233 85.7284 17.888 86.3444 17.888V19.442H85.9384C85.5277 19.442 85.159 19.512 84.8324 19.652C84.515 19.7827 84.2584 20.0113 84.0624 20.338C83.8757 20.6553 83.7824 21.0987 83.7824 21.668V25H82.2984Z" fill="#1F2937"/>
<rect x="0.5" y="0.5" width="110" height="39" rx="19.5" stroke="#1F2937"/>
<defs>
<clipPath id="clip0_557_6141">
<rect width="20" height="20" fill="white" transform="translate(24 10)"/>
</clipPath>
</defs>
</svg>
