<svg width="60" height="60" viewBox="0 0 60 60" fill="none" xmlns="http://www.w3.org/2000/svg">
<g clip-path="url(#clip0_557_5774)">
<circle cx="30" cy="30" r="30" fill="#10B981"/>
<g clip-path="url(#clip1_557_5774)">
<path d="M25.8346 36.8333C26.7551 36.8333 27.5013 36.0871 27.5013 35.1667C27.5013 34.2462 26.7551 33.5 25.8346 33.5C24.9142 33.5 24.168 34.2462 24.168 35.1667C24.168 36.0871 24.9142 36.8333 25.8346 36.8333Z" stroke="white" stroke-width="1.25" stroke-linecap="round" stroke-linejoin="round"/>
<path d="M34.1667 36.8333C35.0871 36.8333 35.8333 36.0871 35.8333 35.1667C35.8333 34.2462 35.0871 33.5 34.1667 33.5C33.2462 33.5 32.5 34.2462 32.5 35.1667C32.5 36.0871 33.2462 36.8333 34.1667 36.8333Z" stroke="white" stroke-width="1.25" stroke-linecap="round" stroke-linejoin="round"/>
<path d="M24.168 35.1667H22.5013V31.8333M21.668 25.1667H30.8346V35.1667M27.5013 35.1667H32.5013M35.8346 35.1667H37.5013V30.1667M37.5013 30.1667H30.8346M37.5013 30.1667L35.0013 26H30.8346" stroke="white" stroke-width="1.25" stroke-linecap="round" stroke-linejoin="round"/>
<path d="M22.5 28.5H25.8333" stroke="white" stroke-width="1.25" stroke-linecap="round" stroke-linejoin="round"/>
</g>
</g>
<defs>
<clipPath id="clip0_557_5774">
<rect width="60" height="60" fill="white"/>
</clipPath>
<clipPath id="clip1_557_5774">
<rect width="20" height="20" fill="white" transform="translate(20 21)"/>
</clipPath>
</defs>
</svg>
