<svg width="14" height="15" viewBox="0 0 14 15" fill="none" xmlns="http://www.w3.org/2000/svg">
<path d="M7.00083 11.725L3.89801 13.4318C3.80593 13.4822 3.70234 13.5046 3.59881 13.4967C3.49528 13.4888 3.39588 13.4508 3.31172 13.387C3.22755 13.3232 3.16192 13.2362 3.12217 13.1355C3.08242 13.0348 3.0701 12.9245 3.08659 12.8169L3.67944 9.20082L1.16947 6.64061C1.09455 6.56458 1.0415 6.46795 1.01639 6.36178C0.991269 6.2556 0.99509 6.14415 1.02742 6.04015C1.05974 5.93615 1.11927 5.84378 1.1992 5.7736C1.27913 5.70341 1.37625 5.65824 1.47946 5.64323L4.94799 5.11529L6.49941 1.82616C6.5458 1.7282 6.61732 1.64577 6.7059 1.58815C6.79448 1.53053 6.89662 1.5 7.00083 1.5C7.10504 1.5 7.20718 1.53053 7.29576 1.58815C7.38434 1.64577 7.45585 1.7282 7.50225 1.82616L9.05366 5.11529L12.5222 5.64323C12.6251 5.65877 12.7218 5.70424 12.8014 5.77449C12.881 5.84474 12.9403 5.93697 12.9725 6.04074C13.0048 6.14452 13.0087 6.2557 12.9839 6.36171C12.9591 6.46772 12.9066 6.56433 12.8322 6.64061L10.3222 9.20082L10.9136 12.8154C10.9314 12.9232 10.92 13.0341 10.8808 13.1354C10.8415 13.2367 10.776 13.3245 10.6916 13.3887C10.6073 13.4529 10.5075 13.4909 10.4035 13.4986C10.2996 13.5062 10.1957 13.4831 10.1036 13.4318L7.00083 11.725Z" stroke="#3B82F6" stroke-width="2" stroke-linecap="round" stroke-linejoin="round"/>
</svg>
