<svg width="40" height="40" viewBox="0 0 40 40" fill="none" xmlns="http://www.w3.org/2000/svg">
<g clip-path="url(#clip0_557_6191)">
<circle cx="20" cy="20" r="20" fill="#10B981"/>
<path d="M18.7481 24.5625C19.6209 24.5627 20.4705 24.2818 21.1712 23.7614C21.8718 23.241 22.3863 22.5088 22.6383 21.6732C22.8904 20.8376 22.8666 19.9431 22.5706 19.1221C22.2745 18.301 21.722 17.5972 20.9947 17.1147C20.9256 17.0688 20.8412 17.0522 20.76 17.0686C20.6787 17.085 20.6073 17.133 20.5614 17.202C20.5155 17.2711 20.499 17.3555 20.5153 17.4368C20.5317 17.518 20.5797 17.5894 20.6488 17.6353C21.3067 18.0698 21.7956 18.7171 22.0335 19.4689C22.2713 20.2207 22.2438 21.0314 21.9556 21.7653C21.6673 22.4993 21.1357 23.112 20.4498 23.5009C19.7639 23.8899 18.9652 24.0315 18.1874 23.9021C17.4095 23.7727 16.6997 23.3801 16.1767 22.79C15.6537 22.1999 15.3492 21.4481 15.3141 20.6603C15.279 19.8726 15.5155 19.0967 15.984 18.4624C16.4525 17.8281 17.1246 17.374 17.8878 17.1759C17.8359 17.237 17.8097 17.3158 17.8146 17.3958C17.8195 17.4759 17.8552 17.5509 17.9141 17.6052C17.9731 17.6594 18.0508 17.6888 18.131 17.6871C18.2111 17.6854 18.2875 17.6527 18.3441 17.5959L18.9691 16.9709C19.0276 16.9123 19.0606 16.8329 19.0606 16.75C19.0606 16.6671 19.0276 16.5877 18.9691 16.5291L18.3441 15.9041C18.2851 15.8471 18.2062 15.8156 18.1242 15.8164C18.0423 15.8171 17.9639 15.8499 17.906 15.9079C17.8481 15.9658 17.8152 16.0442 17.8145 16.1261C17.8138 16.2081 17.8453 16.287 17.9022 16.3459L18.0584 16.5022C17.0579 16.6766 16.159 17.2196 15.5392 18.0242C14.9193 18.8288 14.6235 19.8364 14.7101 20.8484C14.7967 21.8603 15.2594 22.8031 16.0069 23.4906C16.7544 24.1782 17.7325 24.5606 18.7481 24.5625Z" fill="white"/>
<path d="M16.5829 20.6109C16.6055 20.6702 16.6455 20.7212 16.6976 20.7572C16.7498 20.7932 16.8117 20.8125 16.8751 20.8125H17.7248L17.197 22.9241C17.1807 22.9889 17.1856 23.0573 17.211 23.1192C17.2364 23.1811 17.281 23.2332 17.3383 23.2678C17.3871 23.2974 17.4431 23.3128 17.5001 23.3125C17.5767 23.3126 17.6507 23.2846 17.7079 23.2337L20.5204 20.7337C20.5679 20.6917 20.6014 20.6361 20.6165 20.5745C20.6317 20.5129 20.6277 20.4482 20.6051 20.3889C20.5826 20.3296 20.5425 20.2786 20.4903 20.2426C20.438 20.2066 20.3761 20.1874 20.3126 20.1875H19.4629L19.9908 18.0759C20.0071 18.0111 20.0022 17.9427 19.9768 17.8809C19.9515 17.819 19.9069 17.767 19.8497 17.7323C19.7925 17.6976 19.7258 17.6822 19.6592 17.6884C19.5926 17.6945 19.5297 17.7218 19.4798 17.7662L16.6673 20.2662C16.62 20.3084 16.5865 20.3639 16.5715 20.4255C16.5564 20.487 16.5604 20.5517 16.5829 20.6109ZM19.1392 18.9056L18.7595 20.4241C18.748 20.4701 18.7471 20.5182 18.7569 20.5647C18.7668 20.6112 18.7871 20.6548 18.8163 20.6923C18.8455 20.7297 18.8829 20.76 18.9256 20.7808C18.9683 20.8017 19.0151 20.8125 19.0626 20.8125H19.4908L18.0486 22.0937L18.4283 20.5753C18.4397 20.5293 18.4405 20.4812 18.4306 20.4348C18.4207 20.3885 18.4004 20.3449 18.3712 20.3076C18.342 20.2702 18.3046 20.2399 18.262 20.2191C18.2194 20.1983 18.1726 20.1875 18.1251 20.1875H17.697L19.1392 18.9056Z" fill="white"/>
<path d="M27.705 13.1041L25.5175 11.2019C25.4607 11.1524 25.3879 11.1251 25.3125 11.125H14.7216C14.6395 11.1254 14.561 11.1581 14.5028 11.2159L12.2813 13.4237C12.2518 13.4527 12.2283 13.4871 12.2122 13.5251C12.1961 13.5632 12.1877 13.604 12.1875 13.6453V27.3819C12.1875 27.4265 12.1971 27.4705 12.2156 27.5111C12.2341 27.5517 12.2611 27.5879 12.2947 27.6172L14.7947 29.7978C14.8514 29.8477 14.9244 29.8751 15 29.875H25.3125C25.3952 29.875 25.4746 29.8422 25.5331 29.7838L27.7206 27.6031C27.7497 27.5741 27.7728 27.5396 27.7886 27.5017C27.8044 27.4637 27.8125 27.423 27.8125 27.3819V13.3397C27.8125 13.295 27.8029 13.2509 27.7843 13.2102C27.7658 13.1696 27.7387 13.1334 27.705 13.1041ZM20.625 11.75H21.5625V13H20.625V11.75ZM19.0625 11.75H20V13H19.0625V11.75ZM17.5 11.75H18.4375V13H17.5V11.75ZM15.9375 11.75H16.875V13H15.9375V11.75ZM22.6834 29.25H15.1172L12.8125 27.2397V13.7753L14.8503 11.75H15.3125V13.3125C15.3125 13.3954 15.3454 13.4749 15.404 13.5335C15.4626 13.5921 15.5421 13.625 15.625 13.625H21.875C21.9579 13.625 22.0374 13.5921 22.096 13.5335C22.1546 13.4749 22.1875 13.3954 22.1875 13.3125V11.75H22.6956L24.6875 13.4819V27.2522L22.6834 29.25ZM27.1875 27.2522L25.1834 29.25H23.5684L25.2206 27.6031C25.2497 27.5741 25.2728 27.5396 25.2886 27.5017C25.3044 27.4637 25.3125 27.423 25.3125 27.3819V13.3397C25.3125 13.295 25.3029 13.2509 25.2843 13.2102C25.2658 13.1696 25.2387 13.1334 25.205 13.1041L23.6481 11.75H25.1956L27.1875 13.4819V27.2522Z" fill="white"/>
<path d="M23.75 14.25H13.75C13.6671 14.25 13.5876 14.2829 13.529 14.3415C13.4704 14.4001 13.4375 14.4796 13.4375 14.5625V26.4375C13.4375 26.5204 13.4704 26.5999 13.529 26.6585C13.5876 26.7171 13.6671 26.75 13.75 26.75H23.75C23.8329 26.75 23.9124 26.7171 23.971 26.6585C24.0296 26.5999 24.0625 26.5204 24.0625 26.4375V14.5625C24.0625 14.4796 24.0296 14.4001 23.971 14.3415C23.9124 14.2829 23.8329 14.25 23.75 14.25ZM23.4375 26.125H14.0625V14.875H23.4375V26.125Z" fill="white"/>
</g>
<defs>
<clipPath id="clip0_557_6191">
<rect width="40" height="40" fill="white"/>
</clipPath>
</defs>
</svg>
