<svg width="664" height="904" viewBox="0 0 664 904" fill="none" xmlns="http://www.w3.org/2000/svg">
<path d="M522.07 636.775C488.383 613.244 480.751 569.563 482.081 530.287C482.299 523.744 481.58 516.809 484.698 511.074C487.816 505.338 495.098 501.391 500.964 504.139C505.826 506.429 507.941 512.099 510.667 516.787C514.303 523.032 519.632 528.121 526.039 531.464C530.203 533.645 535.371 534.953 539.492 532.685C545.161 529.567 545.815 521.781 545.771 515.239C545.771 503.07 545.699 490.916 545.553 478.776C545.161 472.257 545.824 465.718 547.516 459.41C549.543 453.217 554.057 447.481 560.228 445.737C566.398 443.992 574.095 447.59 575.49 453.958C575.731 456.655 575.796 459.365 575.687 462.071C575.861 464.797 577.126 467.785 579.677 468.613C582.228 469.442 584.888 467.545 586.851 465.626C593.566 459.083 598.145 450.556 602.397 442.138C606.649 433.72 610.813 425.063 616.919 417.888C623.024 410.713 631.462 405.021 640.903 404.476C650.344 403.931 660.178 409.731 662.533 418.891C664.888 428.05 659.546 437.406 653.811 444.842C645.158 455.881 634.957 465.613 623.525 473.738C621.294 474.957 619.513 476.86 618.445 479.168C617.028 483.53 621.149 487.892 625.444 489.266C630.306 490.879 635.583 490.378 640.707 490.988C645.831 491.599 651.282 493.823 653.223 498.621C655.883 505.294 650.301 512.273 644.828 516.853C633.839 526.012 621.36 533.219 607.935 538.159C603.138 539.904 598.101 541.452 594.22 544.811C590.339 548.169 588.028 554.036 590.361 558.637C592.694 563.239 598.69 564.7 603.727 563.762C608.764 562.824 613.234 560.12 618.031 558.31C626.992 554.93 638.548 555.54 644.196 563.282C645.945 565.949 647.053 568.985 647.431 572.152C647.809 575.32 647.448 578.531 646.376 581.536C644.194 587.514 640.835 592.994 636.499 597.652C622.218 614.717 603.663 627.684 582.729 635.227C561.95 642.424 542.697 644.386 522.048 636.819" fill="#10B981"/>
<path d="M652.939 409.862C652.939 409.862 652.743 410.08 652.307 410.473L650.366 412.196C648.666 413.722 646.158 415.947 642.996 418.891C634.032 427.215 625.709 436.204 618.096 445.78C613.234 451.821 608.197 458.669 602.833 466.105C597.469 473.542 591.931 481.567 586.436 490.094C580.578 499.086 575.214 508.39 570.367 517.965C567.837 522.959 565.613 528.171 563.324 533.492L556.564 549.739C547.655 570.204 539.895 591.151 533.321 612.481C528.026 629.934 524.376 647.843 522.419 665.976C521.151 678.214 520.947 690.538 521.809 702.81C522.157 707.172 522.485 710.508 522.79 712.776C522.921 713.867 523.008 714.739 523.095 715.372V716.266C523.001 715.982 522.935 715.69 522.899 715.393C522.79 714.761 522.659 713.91 522.484 712.82C522.092 710.639 521.678 707.194 521.285 702.832C520.233 690.537 520.306 678.171 521.503 665.889C523.339 647.679 526.909 629.685 532.166 612.154C538.684 590.764 546.423 569.764 555.343 549.26L562.277 533.078C564.567 527.779 566.812 522.523 569.364 517.507C574.244 507.903 579.653 498.577 585.564 489.571C591.146 480.848 596.771 472.953 602.07 465.582C607.368 458.211 612.492 451.319 617.333 445.3C625.023 435.749 633.459 426.824 642.56 418.607C645.787 415.707 648.36 413.526 650.105 412.065L652.132 410.429C652.381 410.213 652.651 410.023 652.939 409.862Z" fill="#111827"/>
<path d="M569.647 517.463C569.339 516.565 569.127 515.637 569.014 514.694C568.666 512.884 568.273 510.332 567.815 507.017C566.878 500.475 565.918 491.512 564.893 481.589C563.869 471.666 562.713 462.681 561.754 456.204C561.252 452.977 560.816 450.382 560.511 448.572C560.273 447.645 560.148 446.693 560.14 445.737C560.516 446.61 560.786 447.525 560.947 448.463C561.427 450.251 561.972 452.824 562.582 456.074C563.825 462.616 565.046 471.514 566.071 481.458C567.096 491.403 567.968 500.126 568.644 506.908C568.971 509.961 569.254 512.557 569.472 514.628C569.642 515.563 569.7 516.515 569.647 517.463Z" fill="#111827"/>
<path d="M653.55 501.805C652.488 502.036 651.408 502.168 650.323 502.198C648.142 502.394 645.046 502.656 641.208 503.092C633.533 503.921 622.98 505.447 611.402 507.628C599.824 509.809 589.423 512.273 581.944 514.17C578.216 515.13 575.207 516.002 573.223 516.591C572.163 516.968 571.067 517.231 569.952 517.376C570.96 516.869 572.01 516.453 573.092 516.133C575.141 515.413 578.107 514.41 581.814 513.342C589.249 511.161 599.649 508.566 611.271 506.341C621.116 504.458 631.049 503.076 641.034 502.198C644.893 501.871 648.011 501.74 650.192 501.696C651.312 501.62 652.437 501.656 653.55 501.805Z" fill="#111827"/>
<path d="M533.234 610.627C533.001 610.312 532.811 609.967 532.667 609.603L531.228 606.571C529.985 603.932 528.306 600.029 526.3 595.253C522.244 585.657 517.077 572.223 511.582 557.307C506.087 542.39 501.029 528.956 497.191 519.252C495.316 514.541 493.768 510.681 492.612 507.802L491.391 504.684C491.222 504.324 491.105 503.942 491.042 503.55C491.275 503.866 491.465 504.21 491.609 504.575L493.048 507.606C494.269 510.245 495.97 514.149 497.976 518.925C502.032 528.52 507.199 541.954 512.694 556.871C518.189 571.787 523.247 585.221 527.085 594.926C528.96 599.636 530.508 603.496 531.642 606.375C532.143 607.618 532.558 608.556 532.885 609.493C533.054 609.853 533.171 610.235 533.234 610.627Z" fill="#111827"/>
<path d="M644.61 574.71C644.261 574.91 643.887 575.064 643.498 575.168L640.271 576.258L628.344 580.118C618.27 583.389 604.359 588.056 589.096 593.203C573.833 598.35 559.857 602.929 549.718 605.982C544.659 607.531 540.538 608.708 537.682 609.494L534.389 610.344C534.006 610.466 533.612 610.546 533.212 610.584C533.561 610.383 533.935 610.229 534.324 610.126L537.551 609.035L549.478 605.175C559.551 601.904 573.463 597.237 588.725 592.091C603.988 586.944 617.943 582.364 628.082 579.311C633.162 577.763 637.262 576.585 640.14 575.8L643.432 574.949C643.815 574.828 644.21 574.747 644.61 574.71Z" fill="#111827"/>
<path d="M599.169 45.7109L587.94 49.7236L583.121 35.0467C574.269 7.98291 546.054 -6.38862 520.129 2.74897C494.204 11.8866 480.402 41.5674 489.254 68.6312L494.073 83.308L482.8 87.3425C478.502 89.0101 475.011 92.2703 473.054 96.4455C471.096 100.621 470.823 105.39 472.29 109.761L503.536 205.259C504.185 207.423 505.261 209.434 506.703 211.174C508.144 212.914 509.92 214.346 511.925 215.385C513.931 216.425 516.125 217.051 518.377 217.225C520.629 217.4 522.893 217.12 525.035 216.403L641.404 174.771C645.759 173.106 649.3 169.817 651.28 165.596C653.26 161.374 653.527 156.548 652.023 152.134L620.755 56.6367C620.09 54.4787 618.997 52.4769 617.541 50.7507C616.085 49.0245 614.296 47.6094 612.282 46.5896C610.267 45.5699 608.068 44.9666 605.815 44.8156C603.562 44.6646 601.302 44.9691 599.169 45.7109ZM510.47 60.9765C508.083 53.9395 508.511 46.2517 511.665 39.5236C514.819 32.7956 520.454 27.5494 527.39 24.8842C530.814 23.7123 534.44 23.2423 538.05 23.5024C541.66 23.7624 545.181 24.7472 548.402 26.3978C551.624 28.0484 554.479 30.3312 556.8 33.1098C559.12 35.8884 560.856 39.106 561.906 42.5705L566.703 57.2474L515.267 75.6534L510.47 60.9765ZM575.882 145.723L583.863 170.104C584.009 170.593 583.962 171.12 583.731 171.574C583.499 172.029 583.101 172.377 582.62 172.547L571.434 176.538C570.989 176.661 570.513 176.607 570.107 176.388C569.701 176.168 569.395 175.8 569.254 175.36L561.208 151.088C556.772 150.846 552.515 149.254 549.008 146.526C545.501 143.798 542.911 140.063 541.584 135.822C539.688 130.215 540.034 124.091 542.55 118.734C545.065 113.376 549.556 109.2 555.081 107.079C557.809 106.147 560.697 105.773 563.572 105.981C566.448 106.189 569.252 106.973 571.817 108.288C574.383 109.602 576.658 111.42 578.506 113.633C580.355 115.846 581.739 118.408 582.576 121.167C583.979 125.475 584.095 130.099 582.91 134.472C581.725 138.846 579.29 142.778 575.904 145.788L575.882 145.723Z" fill="#10B981"/>
<path d="M587.438 49.4619C587.438 49.7672 566.615 57.5963 540.712 66.9084C514.809 76.2204 493.68 83.7006 493.571 83.4825C493.462 83.2644 514.394 75.3699 540.319 66.036C566.245 56.7022 587.329 49.1784 587.438 49.4619Z" fill="#111827"/>
<path d="M612.164 53.4745C612.261 53.6638 612.341 53.8608 612.404 54.0634C612.579 54.4995 612.775 55.0665 613.036 55.7644C613.603 57.3564 614.388 59.559 615.37 62.3068L623.742 86.6883C627.231 97.0253 631.396 109.281 636.018 122.89C638.199 129.716 640.771 136.825 643.17 144.305C644.454 148.16 645.008 152.22 644.805 156.278C644.62 158.388 644.02 160.441 643.039 162.319C641.991 164.19 640.592 165.841 638.918 167.182C635.549 169.641 631.81 171.548 627.842 172.83L616.612 176.865L595.353 184.476L559.354 197.299L535.043 205.848L528.502 208.028L526.757 208.595C526.571 208.678 526.372 208.73 526.168 208.748C526.168 208.748 526.343 208.748 526.714 208.486L528.414 207.81L534.956 205.346L559.136 196.448L595.07 183.363L616.285 175.687L627.515 171.631C631.371 170.401 635.001 168.552 638.264 166.157C639.821 164.913 641.124 163.38 642.102 161.643C643.025 159.906 643.582 157.998 643.737 156.038C643.938 152.128 643.405 148.215 642.167 144.501C639.812 137.087 637.326 129.912 635.081 123.086C630.545 109.456 626.359 97.1561 623.045 86.8191C619.73 76.4821 616.939 68.1732 615.021 62.3286C614.105 59.4718 613.407 57.2473 612.84 55.6336L612.317 53.8889C612.251 53.7567 612.2 53.6178 612.164 53.4745Z" fill="#111827"/>
<path d="M550.764 23.4012C550.764 23.4012 549.608 22.8342 547.471 21.9619C544.425 20.7914 541.204 20.1426 537.943 20.0428C533.109 19.877 528.298 20.7857 523.857 22.7034C518.457 25.0913 513.84 28.9537 510.535 33.8473C507.208 38.7269 505.423 44.4934 505.411 50.3996C505.456 55.2404 506.19 60.0501 507.591 64.6839C508.725 68.653 509.903 71.8152 510.687 74.0178C511.151 75.1366 511.53 76.2883 511.821 77.4634C511.202 76.4174 510.684 75.3148 510.273 74.1704C509.379 71.9896 508.093 68.8929 506.828 64.902C505.276 60.2195 504.431 55.3316 504.321 50.3996C504.263 44.2703 506.089 38.2712 509.554 33.2149C512.974 28.1425 517.78 24.1607 523.399 21.7438C527.979 19.8156 532.939 18.965 537.899 19.2577C541.231 19.4275 544.505 20.2035 547.558 21.5475C548.375 21.9243 549.162 22.3617 549.913 22.856C550.223 22.9923 550.51 23.1763 550.764 23.4012Z" fill="#111827"/>
<path d="M551.767 108.736C552.115 108.525 552.479 108.343 552.857 108.191C553.948 107.698 555.079 107.297 556.237 106.992C558.074 106.449 559.97 106.127 561.884 106.032C564.487 105.892 567.092 106.285 569.537 107.188C575.119 109.151 580.243 114.842 582.772 122.454C583.985 126.538 583.985 130.887 582.772 134.971C581.427 139.404 579.017 143.44 575.751 146.726L575.882 146.137C578.782 154.097 581.944 162.733 585.215 171.74L585.411 172.285L584.866 172.481L579.872 174.139L568.97 177.781L568.425 177.955L568.251 177.41C565.264 168.381 561.993 159.963 559.529 151.698L560.009 152.069C555.746 151.715 551.682 150.115 548.322 147.467C545.282 145.126 542.789 142.149 541.017 138.744C539.419 135.725 538.623 132.346 538.706 128.93C538.807 125.44 539.678 122.015 541.258 118.901C542.837 115.787 545.086 113.06 547.842 110.917C548.977 109.996 550.25 109.26 551.614 108.736C550.383 109.467 549.189 110.261 548.038 111.113C545.011 113.675 542.691 116.972 541.301 120.687C540.108 123.489 539.55 126.52 539.667 129.562C539.784 132.605 540.572 135.584 541.977 138.286C543.719 141.561 546.152 144.419 549.107 146.66C552.312 149.177 556.187 150.694 560.249 151.022H560.619L560.728 151.349C563.127 159.462 566.419 167.945 569.45 177.017L568.731 176.668L579.633 173.026L584.604 171.347L584.255 172.089C581.006 163.082 577.867 154.424 574.988 146.464V146.137L575.25 145.875C578.42 142.726 580.783 138.858 582.14 134.601C583.297 130.694 583.297 126.535 582.14 122.628C579.763 115.3 574.858 109.739 569.537 107.777C567.182 106.868 564.668 106.446 562.146 106.534C560.262 106.577 558.39 106.833 556.564 107.297C553.315 108.104 551.789 108.845 551.767 108.736Z" fill="#111827"/>
<path d="M484.37 738.423L266.567 737.419C253.989 737.35 241.953 732.291 233.102 723.352C224.251 714.414 219.309 702.327 219.361 689.747L221.672 143.651C221.698 137.418 222.952 131.252 225.362 125.504C227.771 119.756 231.29 114.54 235.717 110.153C240.143 105.766 245.391 102.295 251.16 99.9375C256.928 97.5802 263.105 96.3831 269.337 96.4147L487.117 97.4178C499.695 97.4813 511.734 102.535 520.589 111.47C529.444 120.404 534.391 132.488 534.345 145.068L532.034 691.143C532.008 697.378 530.755 703.546 528.346 709.296C525.936 715.047 522.418 720.266 517.992 724.656C513.566 729.047 508.319 732.522 502.55 734.884C496.781 737.246 490.603 738.449 484.37 738.423Z" fill="#455A64"/>
<path d="M486.79 116.195H444.577C443.2 116.22 441.841 116.517 440.578 117.068C439.316 117.619 438.174 118.413 437.218 119.405C436.262 120.398 435.512 121.568 435.008 122.851C434.505 124.134 434.26 125.503 434.286 126.881V134.535C434.312 135.912 434.066 137.28 433.562 138.561C433.059 139.843 432.308 141.012 431.352 142.003C430.396 142.993 429.254 143.786 427.991 144.334C426.729 144.883 425.37 145.177 423.994 145.199L341.705 144.829C338.921 144.754 336.281 143.578 334.363 141.558C332.446 139.538 331.408 136.84 331.479 134.055V126.401C331.549 123.62 330.515 120.925 328.602 118.906C326.689 116.886 324.054 115.707 321.274 115.628H306.426L269.468 115.453C260.677 115.401 252.224 118.834 245.959 125.002C239.694 131.17 236.128 139.57 236.042 148.362L233.861 681.395C233.841 685.756 234.68 690.079 236.33 694.117C237.981 698.154 240.41 701.827 243.48 704.925C246.549 708.023 250.199 710.487 254.22 712.174C258.241 713.862 262.555 714.741 266.916 714.761L484.261 715.764C488.625 715.784 492.95 714.944 496.989 713.293C501.028 711.641 504.703 709.21 507.803 706.138C510.903 703.066 513.367 699.413 515.055 695.388C516.744 691.364 517.623 687.046 517.643 682.681L519.824 149.648C519.876 140.832 516.426 132.355 510.231 126.082C504.037 119.809 495.605 116.252 486.79 116.195Z" fill="white"/>
<path d="M457.551 644.648L295.938 643.95C294.259 643.95 292.907 642.118 292.929 639.894L293.103 597.608C293.103 595.427 294.477 593.552 296.156 593.552L457.769 594.293C458.699 594.454 459.532 594.968 460.092 595.728C460.653 596.488 460.899 597.435 460.778 598.371L460.625 640.614C460.625 642.86 459.23 644.67 457.551 644.648Z" fill="#10B981"/>
<path d="M338.942 627.105C337.71 627.105 336.622 626.897 335.678 626.481C334.734 626.049 333.99 625.441 333.446 624.657C332.902 623.857 332.622 622.889 332.606 621.753H335.846C335.878 622.537 336.158 623.201 336.686 623.745C337.23 624.273 337.974 624.537 338.918 624.537C339.734 624.537 340.382 624.345 340.862 623.961C341.342 623.561 341.582 623.033 341.582 622.377C341.582 621.689 341.366 621.153 340.934 620.769C340.518 620.385 339.958 620.073 339.254 619.833C338.55 619.593 337.798 619.337 336.998 619.065C335.702 618.617 334.71 618.041 334.022 617.337C333.35 616.633 333.014 615.697 333.014 614.529C332.998 613.537 333.23 612.689 333.71 611.985C334.206 611.265 334.878 610.713 335.726 610.329C336.574 609.929 337.55 609.729 338.654 609.729C339.774 609.729 340.758 609.929 341.606 610.329C342.47 610.729 343.142 611.289 343.622 612.009C344.118 612.729 344.382 613.585 344.414 614.577H341.126C341.11 613.985 340.878 613.465 340.43 613.017C339.998 612.553 339.39 612.321 338.606 612.321C337.934 612.305 337.366 612.473 336.902 612.825C336.454 613.161 336.23 613.657 336.23 614.313C336.23 614.873 336.406 615.321 336.758 615.657C337.11 615.977 337.59 616.249 338.198 616.473C338.806 616.697 339.502 616.937 340.286 617.193C341.118 617.481 341.878 617.817 342.566 618.201C343.254 618.585 343.806 619.097 344.222 619.737C344.638 620.361 344.846 621.169 344.846 622.161C344.846 623.041 344.622 623.857 344.174 624.609C343.726 625.361 343.062 625.969 342.182 626.433C341.302 626.881 340.222 627.105 338.942 627.105ZM349.111 613.065C348.551 613.065 348.087 612.897 347.719 612.561C347.367 612.225 347.191 611.801 347.191 611.289C347.191 610.777 347.367 610.361 347.719 610.041C348.087 609.705 348.551 609.537 349.111 609.537C349.671 609.537 350.127 609.705 350.479 610.041C350.847 610.361 351.031 610.777 351.031 611.289C351.031 611.801 350.847 612.225 350.479 612.561C350.127 612.897 349.671 613.065 349.111 613.065ZM347.575 626.817V614.913H350.647V626.817H347.575ZM358.893 623.265C358.317 623.265 357.781 623.201 357.285 623.073L356.397 623.961C356.669 624.105 357.037 624.225 357.501 624.321C357.965 624.417 358.717 624.513 359.757 624.609C361.341 624.753 362.493 625.129 363.213 625.737C363.933 626.345 364.293 627.185 364.293 628.257C364.293 628.961 364.101 629.625 363.717 630.249C363.333 630.889 362.741 631.401 361.941 631.785C361.141 632.185 360.117 632.385 358.869 632.385C357.173 632.385 355.805 632.065 354.765 631.425C353.725 630.801 353.205 629.857 353.205 628.593C353.205 627.521 353.725 626.593 354.765 625.809C354.445 625.665 354.165 625.513 353.925 625.353C353.701 625.193 353.501 625.025 353.325 624.849V624.297L355.413 622.089C354.485 621.273 354.021 620.225 354.021 618.945C354.021 618.145 354.213 617.417 354.597 616.761C354.997 616.105 355.557 615.585 356.277 615.201C356.997 614.817 357.869 614.625 358.893 614.625C359.565 614.625 360.189 614.721 360.765 614.913H365.277V616.785L363.237 616.929C363.557 617.537 363.717 618.209 363.717 618.945C363.717 619.745 363.525 620.473 363.141 621.129C362.757 621.785 362.197 622.305 361.461 622.689C360.741 623.073 359.885 623.265 358.893 623.265ZM358.893 620.913C359.517 620.913 360.029 620.745 360.429 620.409C360.845 620.073 361.053 619.593 361.053 618.969C361.053 618.345 360.845 617.865 360.429 617.529C360.029 617.193 359.517 617.025 358.893 617.025C358.237 617.025 357.709 617.193 357.309 617.529C356.909 617.865 356.709 618.345 356.709 618.969C356.709 619.593 356.909 620.073 357.309 620.409C357.709 620.745 358.237 620.913 358.893 620.913ZM356.013 628.281C356.013 628.873 356.285 629.313 356.829 629.601C357.389 629.905 358.069 630.057 358.869 630.057C359.637 630.057 360.261 629.897 360.741 629.577C361.221 629.273 361.461 628.857 361.461 628.329C361.461 627.897 361.301 627.537 360.981 627.249C360.677 626.961 360.061 626.785 359.133 626.721C358.477 626.673 357.869 626.601 357.309 626.505C356.845 626.761 356.509 627.041 356.301 627.345C356.109 627.649 356.013 627.961 356.013 628.281ZM367.517 626.817V614.913H370.229L370.469 616.929C370.837 616.225 371.365 615.665 372.053 615.249C372.757 614.833 373.581 614.625 374.525 614.625C375.997 614.625 377.141 615.089 377.957 616.017C378.773 616.945 379.181 618.305 379.181 620.097V626.817H376.109V620.385C376.109 619.361 375.901 618.577 375.485 618.033C375.069 617.489 374.421 617.217 373.541 617.217C372.677 617.217 371.965 617.521 371.405 618.129C370.861 618.737 370.589 619.585 370.589 620.673V626.817H367.517ZM394.389 627.105C393.157 627.105 392.045 626.865 391.053 626.385C390.061 625.889 389.269 625.145 388.677 624.153C388.101 623.161 387.813 621.905 387.813 620.385V610.017H390.885V620.409C390.885 621.721 391.197 622.697 391.821 623.337C392.461 623.977 393.341 624.297 394.461 624.297C395.565 624.297 396.437 623.977 397.077 623.337C397.717 622.697 398.037 621.721 398.037 620.409V610.017H401.109V620.385C401.109 621.905 400.805 623.161 400.197 624.153C399.589 625.145 398.773 625.889 397.749 626.385C396.741 626.865 395.621 627.105 394.389 627.105ZM404.173 632.097V614.913H406.909L407.245 616.617C407.629 616.089 408.133 615.625 408.757 615.225C409.397 614.825 410.221 614.625 411.229 614.625C412.349 614.625 413.349 614.897 414.229 615.441C415.109 615.985 415.805 616.729 416.317 617.673C416.829 618.617 417.085 619.689 417.085 620.889C417.085 622.089 416.829 623.161 416.317 624.105C415.805 625.033 415.109 625.769 414.229 626.313C413.349 626.841 412.349 627.105 411.229 627.105C410.333 627.105 409.549 626.937 408.877 626.601C408.205 626.265 407.661 625.793 407.245 625.185V632.097H404.173ZM410.581 624.417C411.557 624.417 412.365 624.089 413.005 623.433C413.645 622.777 413.965 621.929 413.965 620.889C413.965 619.849 413.645 618.993 413.005 618.321C412.365 617.649 411.557 617.313 410.581 617.313C409.589 617.313 408.773 617.649 408.133 618.321C407.509 618.977 407.197 619.825 407.197 620.865C407.197 621.905 407.509 622.761 408.133 623.433C408.773 624.089 409.589 624.417 410.581 624.417Z" fill="#E8E8E3"/>
<path d="M328.173 272.886L272.093 272.632L272.047 282.925L328.126 283.179L328.173 272.886Z" fill="#10B981"/>
<path opacity="0.1" d="M328.173 272.886L272.093 272.632L272.047 282.925L328.126 283.179L328.173 272.886Z" fill="black"/>
<path d="M492.568 336.085C493.009 336.041 493.441 335.938 493.855 335.78C494.458 335.544 494.983 335.143 495.368 334.622C495.754 334.101 495.985 333.482 496.035 332.836C496.035 329.369 496.035 324.309 496.035 317.81C496.035 314.561 496.035 310.919 496.035 306.906C496.035 305.925 496.035 304.9 496.035 303.875C496.177 302.88 495.961 301.868 495.424 301.018C495.124 300.611 494.734 300.279 494.284 300.048C493.833 299.817 493.336 299.694 492.83 299.688H489.428H457.921L275.551 299.012C275.084 299.004 274.622 299.109 274.204 299.318C273.787 299.526 273.426 299.833 273.152 300.211C272.626 301.064 272.424 302.079 272.585 303.068C272.585 305.249 272.585 307.43 272.585 309.61C272.585 313.972 272.585 318.334 272.585 322.695C272.585 324.876 272.585 327.057 272.585 329.238C272.495 330.253 272.495 331.275 272.585 332.291C272.7 332.726 272.913 333.13 273.208 333.47C273.502 333.81 273.871 334.078 274.286 334.254C274.716 334.425 275.176 334.506 275.638 334.493H286.736L335.163 334.755L417.147 335.257L472.421 335.693L487.444 335.867H491.347C492.241 335.867 492.677 335.867 492.677 335.867H491.347H487.444H472.421H417.147L335.163 335.606L286.736 335.409H275.638C275.027 335.434 274.418 335.33 273.85 335.104C273.276 334.859 272.765 334.486 272.357 334.014C271.949 333.541 271.654 332.982 271.495 332.378C271.369 331.806 271.325 331.218 271.364 330.633V329.02C271.364 326.839 271.364 324.658 271.364 322.477C271.364 318.116 271.364 313.754 271.364 309.392C271.364 307.212 271.364 305.031 271.364 302.85C271.323 302.269 271.323 301.686 271.364 301.105C271.446 300.464 271.694 299.855 272.084 299.339C272.46 298.812 272.958 298.385 273.535 298.092C274.112 297.8 274.751 297.652 275.398 297.66L457.769 298.663L489.276 298.881H492.677C493.276 298.881 493.867 299.026 494.398 299.303C494.93 299.581 495.386 299.982 495.73 300.473C496.344 301.421 496.593 302.561 496.428 303.679C496.428 304.704 496.428 305.729 496.428 306.71C496.428 310.679 496.428 314.321 496.428 317.614C496.428 324.156 496.275 329.172 496.231 332.662C496.178 333.332 495.934 333.974 495.529 334.511C495.123 335.048 494.572 335.458 493.942 335.693C493.529 335.949 493.054 336.085 492.568 336.085Z" fill="#E0E0E0"/>
<path d="M391.506 309.959H288.938V319.577H391.506V309.959Z" fill="#10B981"/>
<path opacity="0.2" d="M391.506 309.959H288.938V319.577H391.506V309.959Z" fill="white"/>
<path d="M327.791 366.789L271.711 366.534L271.664 376.828L327.744 377.082L327.791 366.789Z" fill="#10B981"/>
<path opacity="0.1" d="M327.791 366.789L271.711 366.534L271.664 376.828L327.744 377.082L327.791 366.789Z" fill="black"/>
<path d="M491.151 429.991C491.591 429.937 492.028 429.857 492.459 429.751C493.068 429.557 493.628 429.235 494.102 428.806C494.576 428.377 494.953 427.852 495.206 427.265C495.55 426.385 495.684 425.437 495.599 424.495C495.599 423.449 495.599 422.315 495.599 421.05C495.599 418.52 495.599 415.641 495.599 412.326V398.478C495.703 397.476 495.481 396.466 494.966 395.6C494.429 394.711 493.583 394.051 492.59 393.746C491.504 393.552 490.398 393.494 489.297 393.572H457.921L276.183 392.895C275.205 392.898 274.262 393.255 273.528 393.901C272.794 394.547 272.319 395.437 272.193 396.407C272.193 398.478 272.193 400.768 272.193 402.949C272.193 407.311 272.193 411.672 272.193 416.034C272.193 418.215 272.193 420.395 272.193 422.576C272.111 423.596 272.155 424.621 272.323 425.629C272.596 426.514 273.156 427.281 273.915 427.81C274.721 428.321 275.667 428.566 276.619 428.508H279.65H285.951L334.204 428.748L415.904 429.25L470.982 429.686L485.961 429.86H470.982H415.904L334.16 429.773L285.907 429.598H276.423C275.243 429.668 274.073 429.355 273.087 428.704C272.094 428.017 271.37 427.008 271.037 425.847C270.842 424.739 270.783 423.611 270.863 422.489C270.863 420.308 270.863 418.127 270.863 415.947C270.863 411.585 270.863 407.223 270.863 402.862C270.863 400.681 270.863 398.5 270.863 396.319C271.022 395.072 271.63 393.926 272.573 393.095C273.516 392.264 274.73 391.806 275.987 391.805L457.725 392.808L489.101 393.048C490.269 392.976 491.442 393.057 492.59 393.288C493.723 393.658 494.678 394.435 495.272 395.469C495.836 396.429 496.08 397.544 495.969 398.653C495.969 399.678 495.969 400.681 495.969 401.684C495.969 405.631 495.969 409.252 495.969 412.588C495.969 415.925 495.969 418.738 495.969 421.311C495.969 422.554 495.969 423.71 495.969 424.779C496.049 425.754 495.892 426.734 495.512 427.636C495.229 428.237 494.819 428.771 494.311 429.2C493.803 429.629 493.208 429.944 492.568 430.122C492.091 430.161 491.612 430.117 491.151 429.991Z" fill="#E0E0E0"/>
<path d="M327.368 464.77L271.288 464.515L271.241 474.809L327.321 475.063L327.368 464.77Z" fill="#10B981"/>
<path opacity="0.1" d="M327.368 464.77L271.288 464.515L271.241 474.809L327.321 475.063L327.368 464.77Z" fill="black"/>
<path d="M490.715 527.931C491.156 527.879 491.593 527.799 492.023 527.691C492.63 527.499 493.188 527.179 493.662 526.754C494.135 526.33 494.513 525.809 494.771 525.227C495.113 524.346 495.247 523.399 495.163 522.457C495.163 521.389 495.163 520.277 495.163 518.99C495.163 516.482 495.163 513.582 495.163 510.267V496.419C495.267 495.416 495.046 494.407 494.531 493.54C493.98 492.667 493.138 492.018 492.154 491.708C491.069 491.506 489.963 491.441 488.862 491.512H457.486L275.747 490.836C274.77 490.838 273.826 491.195 273.092 491.841C272.358 492.487 271.884 493.377 271.757 494.347C271.757 496.528 271.757 498.708 271.757 500.889C271.757 505.251 271.757 509.612 271.757 513.974C271.757 516.155 271.757 518.336 271.757 520.516C271.676 521.528 271.72 522.547 271.888 523.548C272.149 524.438 272.712 525.209 273.48 525.729C274.28 526.251 275.23 526.496 276.183 526.426H285.668L333.921 526.688L415.621 527.19L470.699 527.626L485.678 527.8H470.699H415.621L333.921 527.561L285.668 527.364H276.183C275.003 527.444 273.83 527.129 272.847 526.47C271.855 525.783 271.131 524.773 270.798 523.613C270.602 522.505 270.544 521.377 270.623 520.255C270.623 518.074 270.623 515.893 270.623 513.712C270.623 509.351 270.623 504.989 270.623 500.628C270.623 498.447 270.623 496.266 270.623 493.976C270.777 492.731 271.381 491.585 272.321 490.754C273.26 489.922 274.471 489.463 275.725 489.462L457.464 490.465L488.84 490.705C490.008 490.633 491.181 490.714 492.329 490.945C493.462 491.315 494.417 492.092 495.011 493.126C495.575 494.086 495.819 495.201 495.708 496.309C495.708 497.334 495.708 498.359 495.708 499.341C495.708 503.288 495.708 506.908 495.708 510.245C495.708 513.582 495.708 516.395 495.708 518.968C495.708 520.211 495.708 521.367 495.708 522.436C495.792 523.411 495.635 524.392 495.25 525.292C494.967 525.894 494.558 526.428 494.05 526.857C493.542 527.286 492.947 527.6 492.307 527.779C491.796 527.954 491.25 528.006 490.715 527.931Z" fill="#E0E0E0"/>
<path d="M389.316 406.584L286.75 406.118L286.706 415.736L389.272 416.201L389.316 406.584Z" fill="#10B981"/>
<path opacity="0.2" d="M389.316 406.584L286.75 406.118L286.706 415.736L389.272 416.201L389.316 406.584Z" fill="white"/>
<path d="M296.025 510.136C295.961 511.013 295.64 511.852 295.104 512.549C294.567 513.246 293.837 513.77 293.006 514.056C292.174 514.342 291.277 514.377 290.425 514.158C289.574 513.938 288.805 513.474 288.215 512.822C287.625 512.169 287.239 511.358 287.106 510.489C286.972 509.62 287.097 508.73 287.464 507.931C287.831 507.132 288.425 506.458 289.172 505.993C289.918 505.528 290.785 505.293 291.664 505.316C292.879 505.384 294.018 505.928 294.834 506.83C295.651 507.732 296.079 508.92 296.025 510.136Z" fill="#10B981"/>
<path d="M309.914 510.201C309.957 510.816 309.873 511.433 309.667 512.014C309.461 512.595 309.138 513.127 308.718 513.578C308.298 514.029 307.789 514.388 307.224 514.634C306.659 514.88 306.049 515.007 305.433 515.007C304.817 515.007 304.207 514.88 303.642 514.634C303.077 514.388 302.569 514.029 302.148 513.578C301.728 513.127 301.405 512.595 301.199 512.014C300.993 511.433 300.909 510.816 300.952 510.201C300.909 509.587 300.993 508.969 301.199 508.388C301.405 507.808 301.728 507.275 302.148 506.824C302.569 506.374 303.077 506.014 303.642 505.769C304.207 505.523 304.817 505.396 305.433 505.396C306.049 505.396 306.659 505.523 307.224 505.769C307.789 506.014 308.298 506.374 308.718 506.824C309.138 507.275 309.461 507.808 309.667 508.388C309.873 508.969 309.957 509.587 309.914 510.201Z" fill="#10B981"/>
<path d="M323.825 510.267C323.761 511.144 323.441 511.983 322.904 512.68C322.367 513.377 321.638 513.9 320.806 514.186C319.974 514.472 319.077 514.508 318.226 514.289C317.374 514.069 316.605 513.605 316.015 512.953C315.425 512.3 315.04 511.489 314.906 510.62C314.773 509.75 314.897 508.861 315.264 508.062C315.632 507.263 316.226 506.589 316.972 506.124C317.719 505.659 318.585 505.424 319.464 505.447C320.677 505.52 321.813 506.066 322.628 506.967C323.443 507.868 323.873 509.053 323.825 510.267Z" fill="#10B981"/>
<path d="M337.714 510.332C337.65 511.209 337.33 512.048 336.793 512.745C336.256 513.442 335.527 513.966 334.695 514.252C333.864 514.538 332.966 514.573 332.115 514.354C331.263 514.135 330.495 513.67 329.904 513.018C329.314 512.366 328.929 511.555 328.795 510.685C328.662 509.816 328.786 508.926 329.154 508.127C329.521 507.328 330.115 506.654 330.861 506.189C331.608 505.725 332.475 505.489 333.354 505.512C334.566 505.586 335.702 506.131 336.517 507.032C337.333 507.933 337.762 509.118 337.714 510.332Z" fill="#10B981"/>
<path d="M351.604 510.376C351.544 511.254 351.227 512.096 350.692 512.796C350.158 513.495 349.43 514.023 348.598 514.312C347.766 514.601 346.868 514.64 346.015 514.423C345.162 514.205 344.391 513.742 343.799 513.091C343.207 512.439 342.819 511.628 342.684 510.758C342.549 509.888 342.673 508.997 343.04 508.196C343.406 507.396 344.001 506.721 344.748 506.256C345.495 505.79 346.363 505.554 347.243 505.578C348.452 505.651 349.584 506.194 350.399 507.09C351.213 507.986 351.646 509.165 351.604 510.376Z" fill="#10B981"/>
<path d="M365.515 510.441C365.455 511.315 365.142 512.153 364.612 512.851C364.083 513.549 363.361 514.077 362.536 514.37C361.711 514.663 360.818 514.708 359.967 514.5C359.116 514.292 358.345 513.839 357.748 513.198C357.15 512.558 356.754 511.756 356.606 510.893C356.459 510.029 356.567 509.141 356.917 508.338C357.268 507.536 357.845 506.853 358.578 506.374C359.312 505.895 360.169 505.641 361.045 505.643C362.273 505.689 363.433 506.219 364.271 507.119C365.109 508.018 365.556 509.213 365.515 510.441Z" fill="#10B981"/>
<path d="M379.404 510.507C379.447 511.121 379.363 511.738 379.157 512.319C378.951 512.9 378.628 513.433 378.208 513.883C377.788 514.334 377.279 514.694 376.714 514.939C376.149 515.185 375.539 515.312 374.923 515.312C374.307 515.312 373.697 515.185 373.132 514.939C372.567 514.694 372.059 514.334 371.638 513.883C371.218 513.433 370.895 512.9 370.689 512.319C370.484 511.738 370.4 511.121 370.443 510.507C370.4 509.892 370.484 509.275 370.689 508.694C370.895 508.113 371.218 507.58 371.638 507.13C372.059 506.679 372.567 506.32 373.132 506.074C373.697 505.828 374.307 505.701 374.923 505.701C375.539 505.701 376.149 505.828 376.714 506.074C377.279 506.32 377.788 506.679 378.208 507.13C378.628 507.58 378.951 508.113 379.157 508.694C379.363 509.275 379.447 509.892 379.404 510.507Z" fill="#10B981"/>
<path d="M393.293 510.572C393.234 511.446 392.92 512.284 392.391 512.982C391.861 513.679 391.14 514.207 390.314 514.5C389.489 514.793 388.596 514.839 387.745 514.631C386.894 514.423 386.123 513.97 385.526 513.329C384.929 512.688 384.532 511.887 384.385 511.023C384.237 510.16 384.345 509.272 384.695 508.469C385.046 507.667 385.623 506.984 386.357 506.505C387.09 506.026 387.948 505.772 388.823 505.774C390.052 505.82 391.212 506.35 392.049 507.25C392.887 508.149 393.334 509.344 393.293 510.572Z" fill="#10B981"/>
<path d="M407.183 510.637C407.123 511.516 406.806 512.357 406.271 513.057C405.737 513.757 405.009 514.284 404.177 514.574C403.346 514.863 402.447 514.901 401.594 514.684C400.741 514.467 399.97 514.004 399.378 513.353C398.786 512.701 398.398 511.89 398.263 511.019C398.128 510.149 398.252 509.259 398.619 508.458C398.986 507.658 399.58 506.983 400.327 506.517C401.074 506.052 401.942 505.816 402.822 505.84C404.031 505.913 405.163 506.455 405.978 507.352C406.792 508.248 407.225 509.427 407.183 510.637Z" fill="#10B981"/>
<g opacity="0.2">
<path d="M296.025 510.136C295.961 511.013 295.64 511.852 295.104 512.549C294.567 513.246 293.837 513.769 293.006 514.055C292.174 514.341 291.277 514.377 290.425 514.158C289.574 513.938 288.805 513.474 288.215 512.822C287.625 512.169 287.239 511.358 287.106 510.489C286.972 509.62 287.097 508.73 287.464 507.931C287.831 507.132 288.425 506.458 289.172 505.993C289.918 505.528 290.785 505.293 291.664 505.316C292.879 505.384 294.018 505.928 294.834 506.83C295.651 507.732 296.079 508.92 296.025 510.136Z" fill="white"/>
<path d="M309.914 510.201C309.957 510.816 309.873 511.433 309.667 512.014C309.462 512.595 309.139 513.127 308.718 513.578C308.298 514.029 307.79 514.388 307.224 514.634C306.659 514.88 306.05 515.007 305.434 515.007C304.817 515.007 304.208 514.88 303.643 514.634C303.078 514.388 302.569 514.029 302.149 513.578C301.728 513.127 301.405 512.595 301.2 512.014C300.994 511.433 300.91 510.816 300.953 510.201C300.91 509.586 300.994 508.969 301.2 508.388C301.405 507.807 301.728 507.275 302.149 506.824C302.569 506.374 303.078 506.014 303.643 505.768C304.208 505.523 304.817 505.396 305.434 505.396C306.05 505.396 306.659 505.523 307.224 505.768C307.79 506.014 308.298 506.374 308.718 506.824C309.139 507.275 309.462 507.807 309.667 508.388C309.873 508.969 309.957 509.586 309.914 510.201Z" fill="white"/>
<path d="M323.825 510.267C323.761 511.144 323.441 511.983 322.904 512.68C322.367 513.376 321.638 513.9 320.806 514.186C319.974 514.472 319.077 514.508 318.226 514.288C317.374 514.069 316.605 513.605 316.015 512.952C315.425 512.3 315.04 511.489 314.906 510.62C314.773 509.75 314.897 508.861 315.264 508.062C315.632 507.262 316.226 506.589 316.972 506.124C317.719 505.659 318.585 505.424 319.464 505.447C320.677 505.52 321.813 506.066 322.628 506.967C323.443 507.868 323.873 509.052 323.825 510.267Z" fill="white"/>
<path d="M337.714 510.332C337.65 511.209 337.33 512.048 336.793 512.745C336.256 513.442 335.527 513.966 334.695 514.252C333.864 514.538 332.966 514.573 332.115 514.354C331.263 514.135 330.495 513.67 329.904 513.018C329.314 512.366 328.929 511.555 328.795 510.685C328.662 509.816 328.786 508.926 329.154 508.127C329.521 507.328 330.115 506.654 330.861 506.189C331.608 505.725 332.475 505.489 333.354 505.512C334.566 505.586 335.702 506.131 336.517 507.032C337.333 507.933 337.762 509.118 337.714 510.332Z" fill="white"/>
<path d="M351.604 510.376C351.544 511.254 351.227 512.096 350.693 512.795C350.158 513.495 349.43 514.023 348.599 514.312C347.767 514.601 346.869 514.64 346.016 514.422C345.162 514.205 344.392 513.742 343.799 513.091C343.207 512.439 342.819 511.628 342.684 510.758C342.549 509.888 342.673 508.997 343.04 508.196C343.407 507.396 344.001 506.721 344.748 506.255C345.496 505.79 346.363 505.554 347.243 505.578C348.452 505.651 349.585 506.194 350.399 507.09C351.214 507.986 351.646 509.165 351.604 510.376Z" fill="white"/>
<path d="M365.515 510.441C365.455 511.315 365.142 512.153 364.612 512.85C364.083 513.548 363.361 514.076 362.536 514.369C361.711 514.662 360.818 514.708 359.967 514.5C359.116 514.292 358.345 513.839 357.748 513.198C357.15 512.557 356.754 511.756 356.606 510.892C356.459 510.029 356.567 509.141 356.917 508.338C357.268 507.536 357.845 506.853 358.578 506.374C359.312 505.895 360.169 505.641 361.045 505.643C362.273 505.689 363.433 506.219 364.271 507.119C365.109 508.018 365.556 509.213 365.515 510.441Z" fill="white"/>
<path d="M379.405 510.506C379.447 511.121 379.363 511.738 379.158 512.319C378.952 512.9 378.629 513.433 378.209 513.883C377.788 514.334 377.28 514.694 376.715 514.939C376.15 515.185 375.54 515.312 374.924 515.312C374.308 515.312 373.698 515.185 373.133 514.939C372.568 514.694 372.059 514.334 371.639 513.883C371.219 513.433 370.896 512.9 370.69 512.319C370.484 511.738 370.4 511.121 370.443 510.506C370.4 509.892 370.484 509.275 370.69 508.694C370.896 508.113 371.219 507.58 371.639 507.13C372.059 506.679 372.568 506.32 373.133 506.074C373.698 505.828 374.308 505.701 374.924 505.701C375.54 505.701 376.15 505.828 376.715 506.074C377.28 506.32 377.788 506.679 378.209 507.13C378.629 507.58 378.952 508.113 379.158 508.694C379.363 509.275 379.447 509.892 379.405 510.506Z" fill="white"/>
<path d="M393.294 510.572C393.234 511.446 392.921 512.283 392.391 512.981C391.862 513.679 391.14 514.207 390.315 514.5C389.489 514.793 388.596 514.839 387.746 514.631C386.895 514.422 386.123 513.97 385.526 513.329C384.929 512.688 384.533 511.887 384.385 511.023C384.237 510.16 384.346 509.272 384.696 508.469C385.046 507.666 385.624 506.984 386.357 506.505C387.091 506.026 387.948 505.772 388.824 505.774C390.052 505.82 391.212 506.35 392.05 507.249C392.888 508.149 393.335 509.343 393.294 510.572Z" fill="white"/>
<path d="M407.183 510.637C407.123 511.516 406.806 512.357 406.271 513.057C405.737 513.757 405.009 514.284 404.177 514.574C403.346 514.863 402.447 514.901 401.594 514.684C400.741 514.467 399.97 514.004 399.378 513.352C398.786 512.701 398.398 511.889 398.263 511.019C398.128 510.149 398.252 509.259 398.619 508.458C398.986 507.658 399.58 506.983 400.327 506.517C401.074 506.052 401.942 505.816 402.822 505.84C404.031 505.913 405.163 506.455 405.978 507.352C406.792 508.248 407.225 509.427 407.183 510.637Z" fill="white"/>
</g>
<path d="M387.45 195.816C388.965 195.149 390.25 194.051 391.145 192.659C392.041 191.267 392.508 189.642 392.487 187.987C392.543 186.911 392.38 185.835 392.007 184.824C391.635 183.813 391.06 182.888 390.318 182.107C389.577 181.325 388.684 180.703 387.694 180.277C386.704 179.852 385.638 179.633 384.561 179.633C383.484 179.633 382.418 179.852 381.428 180.277C380.438 180.703 379.545 181.325 378.804 182.107C378.062 182.888 377.488 183.813 377.115 184.824C376.742 185.835 376.579 186.911 376.635 187.987C376.602 189.659 377.065 191.303 377.965 192.712C378.865 194.121 380.163 195.231 381.694 195.903C369.483 197.735 370.029 210.994 370.029 210.994L398.897 211.125C398.897 211.125 399.573 197.626 387.45 195.816Z" fill="#10B981"/>
<path opacity="0.1" d="M387.45 195.816C388.965 195.149 390.25 194.051 391.145 192.659C392.041 191.267 392.508 189.642 392.487 187.987C392.543 186.911 392.38 185.835 392.007 184.824C391.635 183.813 391.06 182.888 390.318 182.107C389.577 181.325 388.684 180.703 387.694 180.277C386.704 179.852 385.638 179.633 384.561 179.633C383.484 179.633 382.418 179.852 381.428 180.277C380.438 180.703 379.545 181.325 378.804 182.107C378.062 182.888 377.488 183.813 377.115 184.824C376.742 185.835 376.579 186.911 376.635 187.987C376.602 189.659 377.065 191.303 377.965 192.712C378.865 194.121 380.163 195.231 381.694 195.903C369.483 197.735 370.029 210.994 370.029 210.994L398.897 211.125C398.897 211.125 399.573 197.626 387.45 195.816Z" fill="black"/>
<path d="M434.361 219.677L331.468 219.21L331.412 231.51L434.305 231.977L434.361 219.677Z" fill="#10B981"/>
<path opacity="0.2" d="M434.361 219.677L331.468 219.21L331.412 231.51L434.305 231.977L434.361 219.677Z" fill="white"/>
<path d="M56.0916 283.419H55.0668L52.1015 283.637C50.4967 283.733 48.9009 283.945 47.3263 284.269C46.3065 284.413 45.2948 284.609 44.2955 284.858L40.9159 285.796C35.1636 287.561 29.7362 290.249 24.8462 293.756C18.3853 298.446 12.9904 304.452 9.01629 311.377C6.68047 315.369 4.82163 319.622 3.47801 324.047C2.06617 328.858 1.25328 333.824 1.05775 338.833C0.927807 341.465 0.971505 344.102 1.18858 346.728C1.18858 348.058 1.55925 349.388 1.73368 350.74C1.8804 352.103 2.13559 353.453 2.49683 354.775C4.45751 363.526 8.4358 371.698 14.1143 378.638C19.7929 385.578 27.0145 391.096 35.2032 394.749C41.1298 397.307 47.4821 398.734 53.933 398.958C60.5958 399.325 67.2652 398.369 73.5568 396.145L75.4756 395.425H75.7372L75.9553 395.556L103.45 409.513L102.644 410.211C99.7001 401.095 96.8655 392.263 94.1182 383.78V383.453L94.3581 383.213C101.028 376.493 105.979 368.265 108.792 359.224C111.34 350.958 112.084 342.242 110.973 333.665C109.985 326.042 107.534 318.681 103.756 311.988C100.499 306.237 96.2972 301.077 91.3273 296.722C87.2269 293.275 82.6886 290.386 77.8305 288.129C74.1545 286.544 70.3261 285.338 66.405 284.531L62.0442 283.811L58.8826 283.572L56.9638 283.441H56.3097C56.527 283.417 56.7464 283.417 56.9638 283.441H58.9044L62.066 283.572L66.4268 284.204C70.3968 284.952 74.2773 286.114 78.0049 287.672C82.9465 289.901 87.5666 292.783 91.7416 296.242C96.8028 300.578 101.094 305.739 104.432 311.508C108.317 318.273 110.843 325.734 111.867 333.468C113.07 342.179 112.378 351.046 109.839 359.464C107.008 368.693 101.98 377.096 95.1866 383.954L95.3175 383.387C98.0648 391.871 100.921 400.703 103.886 409.797L104.301 411.127L103.058 410.495L75.5628 396.559H76.0425L74.0801 397.279C67.6674 399.536 60.8745 400.514 54.0856 400.158C47.4957 399.907 41.0105 398.427 34.9633 395.796C23.4282 390.855 13.8311 382.267 7.64263 371.349C4.7948 366.307 2.71504 360.867 1.47202 355.211C1.13163 353.855 0.876752 352.478 0.708879 351.089C0.534446 349.715 0.250995 348.363 0.185582 347.011C-0.404532 339.252 0.415462 331.449 2.60585 323.982C3.98293 319.495 5.89357 315.19 8.29676 311.159C12.3657 304.171 17.873 298.127 24.4537 293.429C29.4243 289.913 34.9427 287.246 40.785 285.534L44.2083 284.662C45.2159 284.428 46.2347 284.246 47.2609 284.117C48.8518 283.822 50.4626 283.647 52.0796 283.593L55.0668 283.484C55.4065 283.439 55.7489 283.417 56.0916 283.419Z" fill="#10B981"/>
<path d="M68.5198 334.275H64.4861L55.7644 322.019V313.972C55.7644 313.972 49.5284 313.579 50.2697 324.113C51.0111 334.646 50.2697 331.964 50.2697 331.964C50.2697 331.964 37.0345 331.964 35.9443 333.163C34.8541 334.363 34.7887 347.142 34.6361 354.273C34.5525 355.992 35.0457 357.69 36.0373 359.097C37.0289 360.503 38.462 361.538 40.1089 362.037C40.5706 362.165 41.0472 362.231 41.5262 362.233C44.8404 362.233 61.6951 359.551 61.6951 359.551H68.6507L68.5198 334.275Z" fill="#10B981"/>
<path d="M80.0545 332.116L77.5689 359.682H70.6787V332.683L80.0545 332.116Z" fill="#10B981"/>
<path d="M162.235 893.304V874.658L128.809 874.418L128.525 902.616L130.597 902.768C139.82 903.357 177.519 904.23 183.712 902.31C190.602 900.173 162.235 893.304 162.235 893.304Z" fill="#10B981"/>
<path d="M184.497 900.566C184.497 900.871 171.981 901.133 156.565 901.133C141.15 901.133 128.634 900.871 128.634 900.566C128.634 900.26 141.15 899.999 156.565 899.999C171.981 899.999 184.497 900.26 184.497 900.566Z" fill="#111827"/>
<path d="M162.823 897.12C162.54 896.967 162.823 895.986 163.499 894.939C164.175 893.892 165.091 893.456 165.309 893.674C165.527 893.892 165.069 894.721 164.415 895.615C163.761 896.509 163.107 897.273 162.823 897.12Z" fill="#111827"/>
<path d="M164.96 898.341C164.655 898.341 164.808 897.12 165.462 895.964C166.116 894.809 166.988 894.111 167.228 894.285C167.468 894.46 167.075 895.441 166.465 896.466C165.854 897.491 165.244 898.451 164.96 898.341Z" fill="#111827"/>
<path d="M138.708 900.478C138.577 900.478 138.075 900.086 137.356 899.257C136.477 898.192 135.499 897.213 134.434 896.335C133.387 895.498 132.139 894.949 130.814 894.743C129.79 894.612 129.135 894.743 129.07 894.612C129.005 894.481 129.637 894.023 130.836 893.936C132.419 893.903 133.963 894.428 135.197 895.419C136.353 896.362 137.329 897.507 138.075 898.799C138.577 899.759 138.838 900.391 138.708 900.478Z" fill="#111827"/>
<path d="M162.932 893.609C163.085 893.871 162.518 894.525 161.558 894.874C160.599 895.223 159.749 895.092 159.705 894.874C159.662 894.656 160.337 894.198 161.166 893.893C161.995 893.587 162.758 893.348 162.932 893.609Z" fill="#111827"/>
<path d="M162.409 891.799C162.409 892.126 161.537 892.388 160.403 892.41C159.269 892.431 158.375 892.17 158.397 891.865C158.419 891.559 159.313 891.276 160.403 891.254C161.493 891.232 162.365 891.494 162.409 891.799Z" fill="#111827"/>
<path d="M244.545 893.304V874.658L211.119 874.418L210.836 902.332L212.907 902.485C222.131 903.074 259.852 904.23 266.022 902.31C272.913 900.173 244.545 893.304 244.545 893.304Z" fill="#10B981"/>
<path d="M266.807 900.609C266.807 900.914 254.314 901.176 238.876 901.176C223.439 901.176 210.967 900.914 210.967 900.609C210.967 900.304 223.461 900.042 238.876 900.042C254.292 900.042 266.807 900.304 266.807 900.609Z" fill="#111827"/>
<path d="M245.134 897.12C244.872 896.967 245.134 895.986 245.81 894.939C246.486 893.892 247.402 893.456 247.62 893.674C247.838 893.892 247.38 894.721 246.726 895.615C246.072 896.509 245.418 897.273 245.134 897.12Z" fill="#111827"/>
<path d="M247.271 898.341C246.988 898.341 247.118 897.12 247.794 895.964C248.47 894.809 249.321 894.111 249.56 894.285C249.8 894.46 249.386 895.441 248.775 896.466C248.165 897.491 247.576 898.451 247.271 898.341Z" fill="#111827"/>
<path d="M221.019 900.478C220.888 900.478 220.408 900.086 219.667 899.257C218.788 898.192 217.81 897.213 216.745 896.335C215.698 895.498 214.45 894.949 213.125 894.743C212.122 894.612 211.446 894.743 211.381 894.612C211.316 894.481 211.948 894.023 213.147 893.936C214.73 893.903 216.274 894.428 217.508 895.419C218.67 896.356 219.647 897.502 220.386 898.799C220.888 899.759 221.149 900.391 221.019 900.478Z" fill="#111827"/>
<path d="M245.243 893.609C245.396 893.871 244.829 894.525 243.869 894.874C242.91 895.223 242.06 895.092 242.016 894.874C241.973 894.656 242.648 894.198 243.477 893.893C244.306 893.587 245.069 893.348 245.243 893.609Z" fill="#111827"/>
<path d="M244.764 891.799C244.764 892.126 243.891 892.388 242.758 892.41C241.624 892.431 240.752 892.17 240.773 891.865C240.795 891.559 241.667 891.276 242.758 891.254C243.848 891.232 244.764 891.494 244.764 891.799Z" fill="#111827"/>
<path d="M367.696 339.597C366.824 338.702 364.665 339.139 364.665 339.139C364.882 337.883 364.882 336.6 364.665 335.344C364.273 334.123 361.525 334.363 361.525 334.363C361.399 333.334 361.399 332.294 361.525 331.266C361.547 331.038 361.498 330.809 361.385 330.61C361.272 330.411 361.1 330.251 360.893 330.154C359.593 329.624 358.197 329.371 356.794 329.412C355.115 328.213 361.918 318.683 364.447 315.63C366.976 312.576 366.518 310.199 364.273 310.199C362.724 310.199 354.788 319.359 352.346 322.434C349.904 325.509 343.428 334.057 343.21 327.231C342.992 320.405 340.244 315.259 338.522 314.386C336.799 313.514 334.968 315.564 335.905 317.461C336.729 319.617 337.243 321.878 337.432 324.178C337.668 326.01 337.587 327.869 337.192 329.674C336.469 333.031 335.485 336.327 334.248 339.531H334.074C334.074 339.531 286.497 385.175 283.052 388.425C279.977 391.347 218.141 384.957 205.734 383.649C201.518 383.032 197.261 382.74 193 382.777C187.615 383.016 186.655 383.78 181.291 383.845C167.745 383.996 154.231 385.184 140.866 387.4C134.815 388.429 129.162 391.1 124.525 395.123C119.888 399.146 116.445 404.365 114.571 410.211C102.077 449.248 73.7748 541.648 68.7817 593.552C65.0086 600.395 61.6023 607.435 58.5773 614.64C55.0668 624.192 55.9172 624.519 57.0946 624.737C60.278 625.326 63.8975 608.185 65.2494 612.328C66.6012 616.472 58.3811 632.763 61.7171 633.242C66.078 633.853 69.5448 615.796 69.9591 614.357C70.3734 612.917 72.532 613.375 72.1395 614.727C71.5072 616.646 65.3802 636.993 69.6538 637.648C72.0087 637.996 72.2703 633.7 72.2703 633.7C72.2703 633.7 76.6312 614.226 78.6154 614.618C80.5996 615.011 78.4845 626.504 77.4816 630.342C76.4786 634.18 77.874 636.121 79.9236 635.183C81.3191 634.529 84.6552 622.862 85.5709 619.067C86.4867 615.272 88.7761 604.761 91.8505 610.845C94.9249 616.93 99.591 620.463 101.51 620.55C101.942 620.5 102.35 620.322 102.68 620.039C103.01 619.755 103.248 619.379 103.363 618.959C103.478 618.54 103.465 618.095 103.325 617.683C103.185 617.27 102.925 616.91 102.578 616.646C100.928 615.035 99.5114 613.199 98.37 611.194C97.3529 609.633 96.6151 607.906 96.1896 606.091C95.3109 602.474 94.7996 598.777 94.6633 595.056L94.3144 592.876C99.1986 568.69 113.262 497.705 133.562 452.366L141.891 469.507L145.511 482.2L123.314 537.003L217.988 535.76L203.859 481.371L221.019 424.67C239.574 425.084 287.216 425.782 295.153 422.184C305.14 417.822 356.794 352.572 356.794 352.572C360.161 349.956 363.385 347.16 366.453 344.198C366.453 344.198 369.593 341.559 367.696 339.597Z" fill="#FFBE9D"/>
<path d="M119.149 496.506C121.897 487.128 136.004 440.764 136.004 440.764C136.004 440.764 142.938 478.558 141.106 483.116C139.421 487.018 137.431 490.78 135.154 494.369C119.149 518.728 121.242 530.919 121.242 530.919L217.944 527.975C218.162 514.454 210.16 483.007 208.503 477.991C206.846 472.975 212.362 456.553 212.362 456.553C212.362 456.553 223.264 445.453 222.872 439.739C222.665 434.607 222.03 429.501 220.975 424.474L279.846 426.655L277.993 386.746L193.436 378.284C190.493 386.593 163.87 382.515 163.87 382.515C135.132 383.475 133.344 388.752 121.395 398.042C109.446 407.333 89.6699 487.063 89.6699 487.063L119.149 496.506Z" fill="#10B981"/>
<path d="M176.32 487.063C174.644 487.362 172.937 487.45 171.24 487.325C168.078 487.325 163.739 487.107 158.964 486.627C154.189 486.147 149.872 485.471 146.797 484.86C145.102 484.642 143.44 484.217 141.848 483.595C143.552 483.596 145.253 483.757 146.928 484.075C150.024 484.468 154.32 485.013 159.073 485.493C163.826 485.973 168.144 486.3 171.262 486.518C172.961 486.539 174.655 486.722 176.32 487.063Z" fill="#111827"/>
<path d="M182.949 478.841C181.272 479.663 179.5 480.271 177.672 480.651C168.973 482.938 159.998 484.002 151.006 483.814C149.145 483.874 147.284 483.698 145.467 483.29C147.304 483.058 149.155 482.963 151.006 483.007C154.429 482.898 159.139 482.658 164.328 482.047C169.517 481.436 174.14 480.564 177.41 479.866C179.227 479.381 181.079 479.038 182.949 478.841Z" fill="#111827"/>
<path d="M215.48 442.16C215.436 443.823 215.209 445.475 214.804 447.089C214.237 450.12 213.365 454.263 212.253 458.8C211.141 463.336 210.073 467.523 209.113 470.358C208.728 471.981 208.157 473.554 207.413 475.047C207.534 473.389 207.841 471.75 208.328 470.162C209.157 466.759 210.095 462.834 211.141 458.538C212.188 454.242 213.191 450.316 214.019 446.914C214.314 445.277 214.805 443.681 215.48 442.16Z" fill="#111827"/>
<path d="M120.174 490.945C115.13 490.166 110.151 489.007 105.282 487.477C100.306 486.314 95.4227 484.783 90.6729 482.898C95.7147 483.689 100.692 484.848 105.565 486.365C110.542 487.525 115.426 489.055 120.174 490.945Z" fill="#111827"/>
<path d="M222.022 423.994C221.199 424.135 220.358 424.135 219.536 423.994C217.258 423.76 215.022 423.225 212.886 422.402C209.319 421.061 206.072 418.989 203.353 416.319C200.634 413.649 198.504 410.439 197.099 406.896C195.547 402.999 194.884 398.804 195.159 394.618C195.256 391.166 196.288 387.804 198.146 384.892C199.453 382.93 201.404 381.488 203.662 380.814C204.266 380.647 204.89 380.567 205.516 380.574C205.952 380.574 206.17 380.574 206.17 380.574C206.17 380.574 205.254 380.574 203.793 381.163C201.721 381.928 199.964 383.363 198.8 385.241C195.835 389.908 195.006 398.435 198.168 406.395C199.639 410.148 201.943 413.518 204.905 416.252C207.333 418.489 210.128 420.289 213.169 421.573C216.023 422.701 218.991 423.513 222.022 423.994Z" fill="#111827"/>
<path d="M272.847 425.869C272.302 419.182 272.127 412.469 272.324 405.762C272.153 399.061 272.357 392.356 272.934 385.677C273.48 392.357 273.655 399.063 273.458 405.762C273.641 412.471 273.437 419.184 272.847 425.869Z" fill="#111827"/>
<path d="M192.869 380.727C193.109 375.863 193.611 370.368 193.611 370.368C193.611 370.368 205.647 369.037 206.366 356.607C207.086 344.176 206.366 315.499 206.366 315.499L184.562 304.333L160.359 323.371L164.088 385.524L186.285 386.942C187.981 386.989 189.627 386.361 190.862 385.196C192.096 384.031 192.818 382.423 192.869 380.727Z" fill="#FFBE9D"/>
<path d="M195.028 346.771C195.028 346.771 195.028 347.011 194.832 347.295C194.67 347.5 194.46 347.664 194.22 347.77C193.981 347.876 193.719 347.923 193.458 347.905C192.063 347.905 190.711 346.292 190.231 344.416C190.003 343.507 190.003 342.556 190.231 341.647C190.276 341.25 190.419 340.87 190.647 340.543C190.876 340.215 191.182 339.95 191.539 339.771C191.833 339.65 192.162 339.65 192.455 339.771C192.672 339.879 192.849 340.055 192.957 340.273C193.109 340.643 192.957 340.883 192.957 340.861C192.957 340.84 192.957 340.643 192.739 340.425C192.625 340.269 192.457 340.16 192.268 340.12C192.079 340.08 191.881 340.111 191.714 340.207C191.446 340.369 191.224 340.596 191.068 340.866C190.911 341.137 190.826 341.443 190.82 341.756C190.636 342.567 190.636 343.409 190.82 344.22C191.256 345.921 192.433 347.295 193.48 347.426C193.685 347.453 193.893 347.439 194.092 347.382C194.291 347.326 194.476 347.23 194.635 347.099C194.897 346.924 194.984 346.75 195.028 346.771Z" fill="#EB996E"/>
<path d="M213.845 308.782C212.166 303.068 206.083 300.233 200.545 298.663C192.106 296.264 182.992 295.217 174.75 298.248C166.508 301.28 156.609 306.601 156.609 315.695C151.747 315.302 148.956 319.555 147.037 324.833C145.81 328.048 145.075 331.43 144.857 334.864C144.246 346.771 140.91 363.215 133.191 371.938C128.83 376.801 122.791 380.16 120.305 386.222C118.125 391.478 119.258 397.715 117.231 403.036C115.421 407.725 111.431 411.062 108.509 415.14C105.532 419.766 103.78 425.073 103.418 430.563C103.056 436.052 104.095 441.544 106.438 446.522C108.797 451.372 112.119 455.69 116.201 459.215C120.284 462.739 125.041 465.395 130.182 467.021C140.367 470.12 151.228 470.226 161.471 467.326C169.159 465.488 176.33 461.931 182.447 456.924C188.706 451.812 193.004 444.693 194.614 436.773C196.162 427.876 193.676 418.825 191.823 409.971C186.023 381.992 187.68 380.53 195.006 354.557C195.181 354.099 195.268 353.619 195.399 353.161C195.53 352.703 195.595 352.485 195.682 352.136C195.89 351.11 196 350.065 196.009 349.018C194.939 349.416 193.778 349.5 192.662 349.26C191.545 349.021 190.521 348.468 189.708 347.666C188.893 346.81 188.325 345.751 188.064 344.599C187.803 343.447 187.859 342.246 188.225 341.123C188.74 339.895 189.506 338.789 190.475 337.876C191.444 336.963 192.594 336.264 193.851 335.824C196.271 334.821 198.866 334.297 201.242 333.185C206.279 330.786 209.768 325.814 212.144 320.602C214.098 316.989 214.701 312.799 213.845 308.782Z" fill="#111827"/>
<path d="M195.9 347.36C196.361 348.041 196.741 348.773 197.034 349.541C197.688 350.915 198.56 352.856 199.52 355.102L199.694 355.516H199.236L197.056 355.713C195.551 355.713 194.287 355.996 192.804 355.974C192.675 355.945 192.555 355.884 192.456 355.796C192.357 355.709 192.282 355.597 192.237 355.473C192.172 355.274 192.172 355.061 192.237 354.862C192.288 354.568 192.353 354.277 192.433 353.99L192.826 352.442C193.023 351.409 193.33 350.4 193.742 349.432C193.701 350.485 193.548 351.53 193.284 352.551L192.979 354.099C192.869 354.622 192.673 355.429 192.979 355.364C194.069 355.364 195.617 355.124 197.056 355.037L199.236 354.84L198.953 355.32C198.015 353.139 197.23 351.089 196.772 349.672C196.371 348.948 196.077 348.169 195.9 347.36Z" fill="#10B981"/>
<path d="M121.242 530.919L217.944 527.975L260.026 692.277L252.286 880.742H201.155L207.413 696.29L170.019 581.906L175.775 888.048L124.099 888.811L118.67 601.054C118.43 593.05 115.813 575.015 116.794 567.077L121.242 530.919Z" fill="#111827"/>
<path d="M182.883 584.24C181.3 584.339 179.711 584.244 178.151 583.956C175.23 583.607 171.239 582.997 166.857 582.124C162.474 581.252 158.549 580.249 155.715 579.442C154.2 579.109 152.734 578.581 151.354 577.872C151.354 577.545 158.462 579.246 167.184 581.012C175.906 582.779 182.927 583.913 182.883 584.24Z" fill="#455A64"/>
<path d="M251.762 870.405C251.762 870.711 240.184 870.972 225.903 870.972C211.621 870.972 200.021 870.711 200.021 870.405C200.021 870.1 211.599 869.838 225.903 869.838C240.206 869.838 251.762 870.078 251.762 870.405Z" fill="#455A64"/>
<path d="M175.317 880.088C175.317 880.415 164.066 880.655 150.199 880.655C136.331 880.655 125.102 880.415 125.102 880.088C125.102 879.761 136.353 879.521 150.199 879.521C164.044 879.521 175.317 879.783 175.317 880.088Z" fill="#455A64"/>
<path d="M168.645 879.303C168.34 879.303 166.988 812.418 165.614 729.918C164.24 647.418 163.434 580.489 163.717 580.489C164.001 580.489 165.396 647.352 166.748 729.896C168.1 812.44 168.972 879.303 168.645 879.303Z" fill="#455A64"/>
<path d="M244.894 870.405C244.87 870.108 244.87 869.809 244.894 869.511V866.894C244.894 864.539 245.069 861.159 245.199 856.862C245.505 848.139 245.941 835.469 246.486 819.941C247.663 788.712 249.32 745.663 251.13 698.143C251.13 697.685 251.13 697.249 251.13 696.857V697.009C239.683 651.212 229.326 609.646 221.804 579.573L213.082 544.004C212.079 539.839 211.316 536.589 210.771 534.321C210.509 533.252 210.335 532.424 210.182 531.791C210.097 531.508 210.046 531.215 210.029 530.919C210.143 531.194 210.23 531.479 210.291 531.769C210.465 532.38 210.683 533.209 210.989 534.256C211.577 536.436 212.428 539.751 213.518 543.895C215.698 552.313 218.773 564.438 222.61 579.377C230.198 609.428 240.664 650.885 252.264 696.748V696.9C252.264 697.293 252.264 697.751 252.264 698.187C250.323 745.707 248.557 788.734 247.271 819.963C246.595 835.512 246.028 848.096 245.636 856.862C245.418 861.224 245.243 864.539 245.134 866.894C245.134 868.006 245.003 868.879 244.981 869.511C244.985 869.811 244.955 870.111 244.894 870.405Z" fill="#455A64"/>
<path d="M228.214 693.018C224.542 694.226 220.758 695.066 216.92 695.526C212.21 696.333 208.198 696.9 206.388 696.988V696.551C206.977 696.726 207.282 696.835 207.282 696.922C207.282 697.009 206.911 696.922 206.301 696.922H204.993L206.301 696.53C208.002 696.028 212.014 695.199 216.723 694.349C220.501 693.529 224.35 693.084 228.214 693.018Z" fill="#455A64"/>
<path d="M227.32 699.277C223.919 699.433 220.511 699.28 217.138 698.819C213.732 698.75 210.339 698.377 206.999 697.707C213.813 697.151 220.672 697.681 227.32 699.277Z" fill="#455A64"/>
<path opacity="0.2" d="M120.828 534.386C121.973 535.857 123.416 537.07 125.061 537.946C126.707 538.821 128.519 539.34 130.378 539.468C134.273 539.929 138.212 539.856 142.087 539.25C167.053 536.48 193.502 533.929 217.944 527.975C186.306 529.741 152.88 529.153 121.242 530.919L120.915 533.623" fill="black"/>
<g opacity="0.2">
<path d="M153.426 578.984L171.262 648.203L170.019 581.906L153.426 578.984Z" fill="black"/>
</g>
</svg>
